{
.appVersion = "3151";
.formatVersion = 3;
DisplayStrings = (
l
);
customParameters = (
{
name = panose;
value = (
0,
0,
0,
0,
0,
0,
0,
0,
0,
0
);
},
{
name = fsType;
value = (
);
},
{
name = "Write lastChange";
value = 1;
},
{
name = "Use Typo Metrics";
value = 1;
},
{
name = "Use Line Breaks";
value = 1;
},
{
name = "Enforce Compatibility Check";
value = 1;
},
{
name = vendorID;
value = TBLD;
}
);
date = "2023-05-20 19:28:09 +0000";
familyName = Bentinck;
fontMaster = (
{
customParameters = (
{
name = typoAscender;
value = 800;
},
{
name = typoDescender;
value = -200;
},
{
name = typoLineGap;
value = 0;
},
{
name = winAscent;
value = 800;
},
{
name = winDescent;
value = 200;
},
{
name = hheaAscender;
value = 800;
},
{
name = hheaDescender;
value = -200;
},
{
name = hheaLineGap;
value = 0;
},
{
name = underlinePosition;
value = -75;
},
{
name = strikeoutPosition;
value = 250;
},
{
name = strikeoutSize;
value = 50;
}
);
id = m01;
metricValues = (
{
over = 16;
pos = 800;
},
{
over = 16;
pos = 700;
},
{
over = 16;
pos = 500;
},
{
over = -16;
},
{
over = -16;
pos = -200;
}
);
name = Regular;
stemValues = (
90,
26
);
userData = {
GSExtrudeAngle = 45;
GSExtrudeDontSubtract = 1;
GSExtrudeOffset = 20;
GSOffsetHorizontal = 3;
GSOffsetMakeStroke = 1;
GSOffsetVertical = 3;
};
}
);
glyphs = (
{
glyphname = A;
lastChange = "2023-05-26 21:03:44 +0000";
layers = (
{
layerId = m01;
shapes = (
{
closed = 1;
nodes = (
(485,0,ls),
(750,0,o),
(674,0,o),
(694,0,c),
(694,26,l),
(629,26,ls),
(615,26,o),
(605,35,o),
(598,52,cs),
(342,700,l),
(275,556,l),
(474,52,ls),
(481,35,o),
(476,26,o),
(445,26,cs),
(380,26,l),
(380,0,l)
);
},
{
closed = 1;
nodes = (
(102,0,ls),
(122,0,o),
(187,0,o),
(207,0,c),
(207,26,l),
(142,26,ls),
(112,26,o),
(107,34,o),
(112,47,cs),
(342,700,l),
(312,700,l),
(82,47,ls),
(77,34,o),
(67,26,o),
(52,26,cs),
(-13,26,l),
(-13,0,l)
);
},
{
closed = 1;
nodes = (
(479,202,l),
(479,232,l),
(156,232,l),
(156,202,l)
);
}
);
width = 681;
}
);
unicode = 65;
},
{
glyphname = AE;
lastChange = "2023-05-26 15:38:19 +0000";
layers = (
{
layerId = m01;
shapes = (
{
closed = 1;
nodes = (
(1057,0,l),
(1057,220,l),
(1021,220,l),
(1021,145,ls),
(1021,89,o),
(993,30,o),
(954,30,cs),
(646,30,l),
(645,0,l)
);
},
{
closed = 1;
nodes = (
(695,0,l),
(695,326,l),
(595,326,l),
(595,63,ls),
(595,40,o),
(581,26,o),
(560,26,cs),
(505,26,l),
(505,0,l)
);
},
{
closed = 1;
nodes = (
(695,326,l),
(695,700,l),
(475,700,l),
(475,674,l),
(595,674,l),
(595,637,l),
(595,326,l)
);
},
{
closed = 1;
nodes = (
(937,227,l),
(937,472,l),
(901,472,l),
(901,417,ls),
(901,396,o),
(887,382,o),
(864,382,cs),
(653,382,l),
(653,327,l),
(864,327,ls),
(887,327,o),
(901,313,o),
(901,292,cs),
(901,227,l)
);
},
{
closed = 1;
nodes = (
(1037,480,l),
(1037,700,l),
(645,700,l),
(645,670,l),
(934,670,ls),
(973,670,o),
(1001,611,o),
(1001,555,cs),
(1001,480,l)
);
},
{
closed = 1;
nodes = (
(215,0,ls),
(235,0,o),
(300,0,o),
(320,0,c),
(320,26,l),
(265,26,ls),
(235,26,o),
(228,34,o),
(235,47,cs),
(609,700,l),
(563,700,l),
(185,47,ls),
(178,34,o),
(170,26,o),
(155,26,cs),
(100,26,l),
(100,0,l)
);
},
{
closed = 1;
nodes = (
(662,202,l),
(662,237,l),
(299,237,l),
(299,202,l)
);
}
);
width = 1107;
}
);
unicode = 198;
},
{
glyphname = B;
lastChange = "2023-05-23 18:20:31 +0000";
layers = (
{
layerId = m01;
shapes = (
{
closed = 1;
nodes = (
(318,0,ls),
(505,0,o),
(596,62,o),
(596,190,cs),
(596,307,o),
(473,365,o),
(222,365,c),
(222,340,l),
(280,340,ls),
(418,340,o),
(485,291,o),
(485,190,cs),
(485,79,o),
(430,25,o),
(318,25,cs),
(167,25,l),
(167,0,l)
);
},
{
closed = 1;
nodes = (
(207,0,ls),
(227,0,o),
(298,0,o),
(318,0,c),
(318,25,l),
(222,25,l),
(222,326,l),
(122,326,l),
(122,63,ls),
(122,38,o),
(110,26,o),
(87,26,cs),
(32,26,l),
(32,0,l)
);
},
{
closed = 1;
nodes = (
(222,326,l),
(222,637,ls),
(222,663,o),
(229,675,o),
(242,675,c),
(242,700,l),
(32,700,l),
(32,674,l),
(87,674,ls),
(110,674,o),
(122,662,o),
(122,637,cs),
(122,326,l)
);
},
{
closed = 1;
nodes = (
(453,340,o),
(566,404,o),
(566,536,cs),
(566,646,o),
(485,700,o),
(318,700,cs),
(166,700,l),
(166,675,l),
(318,675,ls),
(410,675,o),
(455,629,o),
(455,536,cs),
(455,421,o),
(397,365,o),
(279,365,cs),
(222,365,l),
(222,340,l)
);
}
);
width = 658;
}
);
unicode = 66;
},
{
glyphname = C;
lastChange = "2023-05-25 16:06:19 +0000";
layers = (
{
layerId = m01;
shapes = (
{
closed = 1;
nodes = (
(384,14,l),
(257,14,o),
(172,145,o),
(172,354,cs),
(172,559,o),
(257,688,o),
(384,688,c),
(384,708,l),
(180,708,o),
(52,571,o),
(52,354,cs),
(52,133,o),
(180,-6,o),
(384,-6,c)
);
},
{
closed = 1;
nodes = (
(472,-6,o),
(567,23,o),
(630,70,c),
(630,220,l),
(594,220,l),
(594,195,ls),
(594,84,o),
(513,14,o),
(384,14,c),
(384,-6,l)
);
},
{
closed = 1;
nodes = (
(615,492,l),
(615,642,l),
(560,683,o),
(471,708,o),
(384,708,c),
(384,688,l),
(504,688,o),
(579,622,o),
(579,517,cs),
(579,492,l)
);
}
);
width = 684;
}
);
unicode = 67;
},
{
glyphname = D;
lastChange = "2023-05-25 16:06:49 +0000";
layers = (
{
layerId = m01;
shapes = (
{
closed = 1;
nodes = (
(564,-2,o),
(684,134,o),
(684,351,c),
(563,351,l),
(563,140,o),
(502,23,o),
(382,23,cs),
(325,23,o),
(212,26,o),
(175,26,c),
(175,0,l),
(218,0,o),
(293,-2,o),
(372,-2,cs)
);
},
{
closed = 1;
nodes = (
(207,0,l),
(222,0,l),
(222,326,l),
(122,326,l),
(122,63,ls),
(122,40,o),
(108,26,o),
(87,26,cs),
(32,26,l),
(32,0,l)
);
},
{
closed = 1;
nodes = (
(222,326,l),
(222,637,ls),
(222,661,o),
(233,677,o),
(250,678,cs),
(265,679,l),
(265,700,l),
(207,700,l),
(32,700,l),
(32,674,l),
(87,674,ls),
(108,674,o),
(122,660,o),
(122,637,cs),
(122,326,l)
);
},
{
closed = 1;
nodes = (
(684,351,l),
(684,567,o),
(564,702,o),
(372,702,cs),
(293,702,o),
(218,700,o),
(175,700,c),
(175,674,l),
(212,674,o),
(325,677,o),
(382,677,cs),
(502,677,o),
(563,561,o),
(563,351,c)
);
}
);
width = 723;
}
);
unicode = 68;
},
{
glyphname = E;
lastChange = "2023-05-26 15:38:58 +0000";
layers = (
{
layerId = m01;
shapes = (
{
closed = 1;
nodes = (
(584,0,l),
(584,220,l),
(548,220,l),
(548,145,ls),
(548,89,o),
(520,30,o),
(481,30,cs),
(173,30,l),
(172,0,l)
);
},
{
closed = 1;
nodes = (
(222,0,l),
(222,326,l),
(122,326,l),
(122,63,ls),
(122,40,o),
(108,26,o),
(87,26,cs),
(32,26,l),
(32,0,l)
);
},
{
closed = 1;
nodes = (
(222,326,l),
(222,700,l),
(32,700,l),
(32,674,l),
(87,674,ls),
(108,674,o),
(122,660,o),
(122,637,cs),
(122,326,l)
);
},
{
closed = 1;
nodes = (
(464,227,l),
(464,472,l),
(428,472,l),
(428,417,ls),
(428,396,o),
(414,372,o),
(391,372,cs),
(180,372,l),
(180,337,l),
(391,337,ls),
(414,337,o),
(428,313,o),
(428,292,cs),
(428,227,l)
);
},
{
closed = 1;
nodes = (
(564,480,l),
(564,700,l),
(172,700,l),
(172,670,l),
(461,670,ls),
(500,670,o),
(528,611,o),
(528,555,cs),
(528,480,l)
);
}
);
width = 644;
}
);
unicode = 69;
},
{
glyphname = F;
lastChange = "2023-05-26 15:39:09 +0000";
layers = (
{
layerId = m01;
shapes = (
{
closed = 1;
nodes = (
(207,0,l),
(322,0,l),
(322,26,l),
(257,26,ls),
(236,26,o),
(222,40,o),
(222,63,cs),
(222,700,l),
(32,700,l),
(32,674,l),
(87,674,ls),
(108,674,o),
(122,660,o),
(122,637,cs),
(122,63,ls),
(122,40,o),
(108,26,o),
(87,26,cs),
(32,26,l),
(32,0,l)
);
},
{
closed = 1;
nodes = (
(464,227,l),
(464,472,l),
(428,472,l),
(428,417,ls),
(428,396,o),
(414,372,o),
(391,372,cs),
(180,372,l),
(180,337,l),
(391,337,ls),
(414,337,o),
(428,313,o),
(428,292,cs),
(428,227,l)
);
},
{
closed = 1;
nodes = (
(564,480,l),
(564,700,l),
(172,700,l),
(172,670,l),
(461,670,ls),
(500,670,o),
(528,611,o),
(528,555,cs),
(528,480,l)
);
}
);
width = 604;
}
);
unicode = 70;
},
{
glyphname = G;
lastChange = "2023-05-27 19:50:09 +0000";
layers = (
{
layerId = m01;
shapes = (
{
closed = 1;
nodes = (
(374,14,l),
(247,14,o),
(182,135,o),
(182,354,cs),
(182,569,o),
(247,688,o),
(374,688,c),
(374,708,l),
(173,708,o),
(62,582,o),
(62,354,cs),
(62,123,o),
(173,-6,o),
(374,-6,c)
);
},
{
closed = 1;
nodes = (
(503,-6,o),
(603,20,o),
(653,67,c),
(592,121,l),
(528,52,o),
(450,14,o),
(374,14,c),
(374,-6,l)
);
},
{
closed = 1;
nodes = (
(653,67,l),
(653,264,ls),
(653,288,o),
(666,301,o),
(688,301,cs),
(733,301,l),
(733,327,l),
(713,327,o),
(578,327,o),
(558,327,cs),
(413,327,l),
(413,301,l),
(488,301,ls),
(523,301,o),
(543,288,o),
(543,264,cs),
(543,67,l)
);
},
{
closed = 1;
nodes = (
(632,492,l),
(632,642,l),
(574,684,o),
(481,708,o),
(374,708,c),
(374,688,l),
(515,688,o),
(586,627,o),
(586,517,cs),
(586,492,l)
);
}
);
width = 730;
}
);
unicode = 71;
},
{
glyphname = H;
lastChange = "2023-05-26 20:17:10 +0000";
layers = (
{
layerId = m01;
shapes = (
{
closed = 1;
nodes = (
(666,326,l),
(666,637,ls),
(666,660,o),
(680,674,o),
(701,674,cs),
(766,674,l),
(766,700,l),
(651,700,ls),
(631,700,o),
(496,700,o),
(476,700,c),
(476,674,l),
(531,674,ls),
(552,674,o),
(566,660,o),
(566,637,cs),
(566,326,l)
);
},
{
closed = 1;
nodes = (
(217,0,ls),
(237,0,o),
(312,0,o),
(332,0,c),
(332,26,l),
(267,26,ls),
(246,26,o),
(232,40,o),
(232,63,cs),
(232,326,l),
(132,326,l),
(132,63,ls),
(132,40,o),
(118,26,o),
(97,26,cs),
(42,26,l),
(42,0,l)
);
},
{
closed = 1;
nodes = (
(232,326,l),
(232,637,ls),
(232,660,o),
(246,674,o),
(267,674,cs),
(332,674,l),
(332,700,l),
(217,700,ls),
(197,700,o),
(62,700,o),
(42,700,c),
(42,674,l),
(97,674,ls),
(118,674,o),
(132,660,o),
(132,637,cs),
(132,326,l)
);
},
{
closed = 1;
nodes = (
(574,347,l),
(574,382,l),
(221,382,l),
(221,347,l)
);
},
{
closed = 1;
nodes = (
(651,0,ls),
(671,0,o),
(746,0,o),
(766,0,c),
(766,26,l),
(701,26,ls),
(680,26,o),
(666,40,o),
(666,63,cs),
(666,326,l),
(566,326,l),
(566,63,ls),
(566,40,o),
(552,26,o),
(531,26,cs),
(476,26,l),
(476,0,l)
);
}
);
width = 808;
}
);
unicode = 72;
},
{
glyphname = I;
lastChange = "2023-05-24 12:59:56 +0000";
layers = (
{
layerId = m01;
shapes = (
{
closed = 1;
nodes = (
(242,326,l),
(242,637,ls),
(242,660,o),
(256,674,o),
(277,674,cs),
(342,674,l),
(342,700,l),
(227,700,ls),
(207,700,o),
(72,700,o),
(52,700,c),
(52,674,l),
(107,674,ls),
(128,674,o),
(142,660,o),
(142,637,cs),
(142,326,l)
);
},
{
closed = 1;
nodes = (
(227,0,ls),
(247,0,o),
(322,0,o),
(342,0,c),
(342,26,l),
(277,26,ls),
(256,26,o),
(242,40,o),
(242,63,cs),
(242,326,l),
(142,326,l),
(142,63,ls),
(142,40,o),
(128,26,o),
(107,26,cs),
(52,26,l),
(52,0,l)
);
}
);
width = 394;
}
);
unicode = 73;
},
{
glyphname = IJ;
lastChange = "2023-05-25 20:44:18 +0000";
layers = (
{
layerId = m01;
shapes = (
{
closed = 1;
nodes = (
(242,326,l),
(242,637,l),
(242,700,l),
(227,700,ls),
(207,700,o),
(72,700,o),
(52,700,c),
(52,674,l),
(107,674,ls),
(128,674,o),
(142,660,o),
(142,637,cs),
(142,326,l)
);
},
{
closed = 1;
nodes = (
(242,0,l),
(242,63,l),
(242,326,l),
(142,326,l),
(142,63,ls),
(142,40,o),
(128,26,o),
(107,26,cs),
(52,26,l),
(52,0,l)
);
},
{
closed = 1;
nodes = (
(506,62,l),
(506,637,ls),
(506,660,o),
(520,674,o),
(541,674,cs),
(606,674,l),
(606,700,l),
(491,700,ls),
(471,700,o),
(426,700,o),
(406,700,c),
(406,637,l),
(406,62,l)
);
},
{
closed = 1;
nodes = (
(392,-200,o),
(506,-109,o),
(506,-18,cs),
(506,62,l),
(406,62,l),
(406,2,ls),
(406,-51,o),
(372,-161,o),
(275,-208,c),
(289,-237,l)
);
}
);
width = 658;
}
);
unicode = 306;
},
{
glyphname = J;
lastChange = "2023-05-26 20:59:32 +0000";
layers = (
{
layerId = m01;
shapes = (
{
closed = 1;
nodes = (
(242,62,l),
(242,637,ls),
(242,660,o),
(256,674,o),
(277,674,cs),
(342,674,l),
(342,700,l),
(227,700,ls),
(207,700,o),
(72,700,o),
(52,700,c),
(52,674,l),
(107,674,ls),
(128,674,o),
(142,660,o),
(142,637,cs),
(142,62,l)
);
},
{
closed = 1;
nodes = (
(128,-200,o),
(242,-109,o),
(242,-18,cs),
(242,62,l),
(142,62,l),
(142,2,ls),
(142,-51,o),
(108,-161,o),
(11,-208,c),
(25,-237,l)
);
}
);
width = 368;
}
);
unicode = 74;
},
{
glyphname = K;
lastChange = "2023-05-23 18:21:15 +0000";
layers = (
{
layerId = m01;
shapes = (
{
closed = 1;
nodes = (
(312,0,l),
(312,25,l),
(267,25,ls),
(245,25,o),
(232,38,o),
(232,62,cs),
(232,700,l),
(42,700,l),
(42,674,l),
(97,674,ls),
(119,674,o),
(132,661,o),
(132,637,cs),
(132,62,ls),
(132,38,o),
(119,25,o),
(97,25,cs),
(42,25,l),
(42,0,l)
);
},
{
closed = 1;
nodes = (
(714,0,l),
(714,25,l),
(689,25,ls),
(667,25,o),
(640,38,o),
(625,56,cs),
(335,419,l),
(269,342,l),
(490,62,l),
(505,40,o),
(491,25,o),
(455,25,cs),
(420,25,l),
(420,0,l)
);
},
{
closed = 1;
nodes = (
(536,608,l),
(576,648,o),
(603,670,o),
(629,670,cs),
(674,670,l),
(674,700,l),
(414,700,l),
(414,670,l),
(469,670,ls),
(515,670,o),
(517,655,o),
(493,628,cs),
(231,327,l),
(231,280,l)
);
}
);
width = 706;
}
);
unicode = 75;
},
{
glyphname = L;
lastChange = "2023-05-26 20:17:41 +0000";
layers = (
{
layerId = m01;
shapes = (
{
closed = 1;
nodes = (
(232,326,l),
(232,637,ls),
(232,660,o),
(246,674,o),
(267,674,cs),
(332,674,l),
(332,700,l),
(217,700,ls),
(197,700,o),
(62,700,o),
(42,700,c),
(42,674,l),
(97,674,ls),
(118,674,o),
(132,660,o),
(132,637,cs),
(132,326,l)
);
},
{
closed = 1;
nodes = (
(232,0,l),
(232,326,l),
(132,326,l),
(132,63,ls),
(132,40,o),
(118,26,o),
(97,26,cs),
(42,26,l),
(42,0,l)
);
},
{
closed = 1;
nodes = (
(574,0,l),
(574,220,l),
(548,220,l),
(548,165,ls),
(548,98,o),
(504,50,o),
(441,50,cs),
(173,50,l),
(173,0,l)
);
}
);
width = 596;
}
);
unicode = 76;
},
{
glyphname = M;
lastChange = "2023-05-25 16:12:53 +0000";
layers = (
{
layerId = m01;
shapes = (
{
closed = 1;
nodes = (
(447,132,l),
(217,700,l),
(27,700,l),
(27,674,l),
(92,674,ls),
(109,674,o),
(121,662,o),
(134,639,c),
(387,0,l)
);
},
{
closed = 1;
nodes = (
(128,0,ls),
(148,0,o),
(223,0,o),
(243,0,c),
(243,26,l),
(178,26,ls),
(157,26,o),
(143,40,o),
(143,63,cs),
(143,700,l),
(113,700,l),
(113,63,ls),
(113,40,o),
(99,26,o),
(78,26,cs),
(13,26,l),
(13,0,l)
);
},
{
closed = 1;
nodes = (
(417,0,l),
(687,637,l),
(687,660,o),
(682,700,o),
(677,700,c),
(657,637,l),
(387,0,l)
);
},
{
closed = 1;
nodes = (
(690,0,ls),
(780,0,o),
(855,0,o),
(875,0,c),
(875,26,l),
(810,26,ls),
(789,26,o),
(775,40,o),
(775,63,cs),
(775,700,l),
(675,700,l),
(675,63,ls),
(675,40,o),
(661,26,o),
(640,26,cs),
(575,26,l),
(575,0,l)
);
},
{
closed = 1;
nodes = (
(775,661,o),
(788,674,o),
(810,674,cs),
(875,674,l),
(875,700,l),
(775,700,l),
(775,637,ls)
);
}
);
width = 902;
}
);
unicode = 77;
},
{
glyphname = N;
lastChange = "2023-05-23 18:29:51 +0000";
layers = (
{
layerId = m01;
shapes = (
{
closed = 1;
nodes = (
(587,203,l),
(245,700,l),
(41,700,l),
(41,674,l),
(106,674,ls),
(123,674,o),
(135,662,o),
(148,639,c),
(587,0,l)
);
},
{
closed = 1;
nodes = (
(142,0,ls),
(162,0,o),
(237,0,o),
(257,0,c),
(257,26,l),
(192,26,ls),
(171,26,o),
(157,40,o),
(157,63,cs),
(157,700,l),
(127,700,l),
(127,63,ls),
(127,40,o),
(113,26,o),
(92,26,cs),
(27,26,l),
(27,0,l)
);
},
{
closed = 1;
nodes = (
(617,0,l),
(617,637,ls),
(617,660,o),
(631,674,o),
(652,674,cs),
(717,674,l),
(717,700,l),
(602,700,ls),
(582,700,o),
(517,700,o),
(497,700,c),
(497,674,l),
(552,674,ls),
(573,674,o),
(587,660,o),
(587,637,cs),
(587,0,l)
);
}
);
width = 744;
}
);
unicode = 78;
},
{
glyphname = O;
lastChange = "2023-05-25 16:06:44 +0000";
layers = (
{
layerId = m01;
shapes = (
{
closed = 1;
nodes = (
(583,-16,o),
(695,127,o),
(695,354,cs),
(695,576,o),
(583,716,o),
(374,716,cs),
(164,716,o),
(52,576,o),
(52,354,cs),
(52,127,o),
(164,-16,o),
(374,-16,cs)
);
},
{
closed = 1;
nodes = (
(241,4,o),
(172,129,o),
(172,354,cs),
(172,574,o),
(241,696,o),
(374,696,cs),
(506,696,o),
(575,574,o),
(575,354,cs),
(575,129,o),
(506,4,o),
(374,4,cs)
);
}
);
width = 747;
}
);
unicode = 79;
},
{
glyphname = Oslash;
lastChange = "2023-05-25 20:40:17 +0000";
layers = (
{
layerId = m01;
shapes = (
{
ref = O;
},
{
closed = 1;
nodes = (
(24,0,l),
(96,0,l),
(723,700,l),
(651,700,l)
);
}
);
width = 747;
}
);
unicode = 216;
},
{
glyphname = OE;
lastChange = "2023-05-25 20:58:31 +0000";
layers = (
{
layerId = m01;
shapes = (
{
closed = 1;
nodes = (
(583,-16,o),
(695,127,o),
(695,354,cs),
(695,576,o),
(583,716,o),
(374,716,cs),
(164,716,o),
(52,576,o),
(52,354,cs),
(52,127,o),
(164,-16,o),
(374,-16,cs)
);
},
{
closed = 1;
nodes = (
(241,4,o),
(172,129,o),
(172,354,cs),
(172,574,o),
(241,696,o),
(374,696,cs),
(506,696,o),
(575,574,o),
(575,354,cs),
(575,129,o),
(506,4,o),
(374,4,cs)
);
},
{
closed = 1;
nodes = (
(1058,0,l),
(1058,220,l),
(1022,220,l),
(1022,145,ls),
(1022,89,o),
(994,30,o),
(955,30,cs),
(647,30,l),
(646,0,l)
);
},
{
closed = 1;
nodes = (
(696,0,l),
(696,326,l),
(596,326,l),
(596,63,l),
(596,0,l)
);
},
{
closed = 1;
nodes = (
(696,326,l),
(696,700,l),
(595,700,l),
(596,637,l),
(596,326,l)
);
},
{
closed = 1;
nodes = (
(938,227,l),
(938,472,l),
(902,472,l),
(902,417,ls),
(902,396,o),
(888,382,o),
(865,382,cs),
(654,382,l),
(654,327,l),
(865,327,ls),
(888,327,o),
(902,313,o),
(902,292,cs),
(902,227,l)
);
},
{
closed = 1;
nodes = (
(1038,480,l),
(1038,700,l),
(646,700,l),
(646,670,l),
(935,670,ls),
(974,670,o),
(1002,611,o),
(1002,555,cs),
(1002,480,l)
);
}
);
width = 1110;
}
);
unicode = 338;
},
{
glyphname = P;
lastChange = "2023-05-23 18:17:56 +0000";
layers = (
{
layerId = m01;
shapes = (
{
closed = 1;
nodes = (
(430,295,o),
(546,366,o),
(546,494,cs),
(546,626,o),
(450,700,o),
(278,700,cs),
(47,700,l),
(47,674,l),
(278,675,ls),
(379,675,o),
(435,610,o),
(435,494,cs),
(435,382,o),
(359,320,o),
(222,320,c),
(222,295,l)
);
},
{
closed = 1;
nodes = (
(207,0,ls),
(227,0,o),
(302,0,o),
(322,0,c),
(322,26,l),
(257,26,ls),
(235,26,o),
(222,39,o),
(222,63,cs),
(222,326,l),
(122,326,l),
(122,63,ls),
(122,39,o),
(109,26,o),
(87,26,cs),
(32,26,l),
(32,0,l)
);
},
{
closed = 1;
nodes = (
(222,326,l),
(222,637,ls),
(222,661,o),
(235,675,o),
(258,675,cs),
(268,675,o),
(227,700,o),
(207,700,cs),
(32,700,l),
(32,674,l),
(87,674,ls),
(109,674,o),
(122,661,o),
(122,637,cs),
(122,326,l)
);
}
);
width = 584;
}
);
unicode = 80;
},
{
glyphname = Thorn;
lastChange = "2023-05-25 20:58:00 +0000";
layers = (
{
layerId = m01;
shapes = (
{
closed = 1;
nodes = (
(430,141,o),
(546,212,o),
(546,340,cs),
(546,472,o),
(450,546,o),
(278,546,cs),
(187,546,l),
(187,520,l),
(278,521,ls),
(379,522,o),
(435,456,o),
(435,340,cs),
(435,228,o),
(359,166,o),
(222,166,c),
(222,141,l)
);
},
{
closed = 1;
nodes = (
(207,0,ls),
(227,0,o),
(282,0,o),
(302,0,c),
(302,26,l),
(257,26,ls),
(235,26,o),
(222,39,o),
(222,63,cs),
(222,326,l),
(122,326,l),
(122,63,ls),
(122,39,o),
(109,26,o),
(87,26,cs),
(32,26,l),
(32,0,l)
);
},
{
closed = 1;
nodes = (
(222,326,l),
(222,637,ls),
(222,661,o),
(235,675,o),
(258,675,cs),
(262,675,o),
(309,675,o),
(314,675,c),
(314,700,l),
(302,700,o),
(212,700,o),
(207,700,cs),
(32,700,l),
(32,674,l),
(87,674,ls),
(109,674,o),
(122,661,o),
(122,637,cs),
(122,326,l)
);
}
);
width = 584;
}
);
unicode = 222;
},
{
glyphname = Q;
lastChange = "2023-05-25 16:02:36 +0000";
layers = (
{
layerId = m01;
shapes = (
{
ref = O;
},
{
closed = 1;
nodes = (
(671,-27,o),
(566,-217,o),
(719,-218,c),
(719,-230,l),
(395,-230,o),
(498,-39,o),
(347,-39,c),
(347,-27,l)
);
}
);
width = 747;
}
);
unicode = 81;
},
{
glyphname = R;
lastChange = "2023-05-26 20:18:02 +0000";
layers = (
{
layerId = m01;
shapes = (
{
closed = 1;
nodes = (
(407,295,o),
(536,373,o),
(536,504,cs),
(536,622,o),
(462,700,o),
(268,700,cs),
(37,700,l),
(37,674,l),
(268,675,ls),
(382,675,o),
(425,601,o),
(425,496,cs),
(425,378,o),
(327,320,o),
(212,320,c),
(212,295,l)
);
},
{
closed = 1;
nodes = (
(197,0,ls),
(217,0,o),
(292,0,o),
(312,0,c),
(312,26,l),
(247,26,ls),
(226,26,o),
(212,40,o),
(212,63,cs),
(212,326,l),
(112,326,l),
(112,63,ls),
(112,40,o),
(98,26,o),
(77,26,cs),
(22,26,l),
(22,0,l)
);
},
{
closed = 1;
nodes = (
(212,326,l),
(212,637,ls),
(212,660,o),
(227,675,o),
(248,675,cs),
(258,675,o),
(217,700,o),
(197,700,cs),
(22,700,l),
(22,674,l),
(77,674,ls),
(98,674,o),
(112,660,o),
(112,637,cs),
(112,326,l)
);
},
{
closed = 1;
nodes = (
(674,0,l),
(674,25,l),
(649,25,ls),
(622,25,o),
(599,36,o),
(585,56,cs),
(387,354,l),
(296,315,l),
(462,62,l),
(476,38,o),
(463,25,o),
(427,25,cs),
(392,25,l),
(392,0,l)
);
}
);
width = 656;
}
);
unicode = 82;
},
{
glyphname = S;
lastChange = "2023-05-24 10:45:10 +0000";
layers = (
{
layerId = m01;
shapes = (
{
closed = 1;
nodes = (
(411,-6,o),
(493,62,o),
(493,181,cs),
(493,404,o),
(127,405,o),
(127,562,cs),
(127,641,o),
(180,685,o),
(264,685,c),
(264,705,l),
(135,705,o),
(57,639,o),
(57,520,cs),
(57,284,o),
(424,296,o),
(424,112,cs),
(424,50,o),
(366,14,o),
(273,14,c),
(273,-6,l)
);
},
{
closed = 1;
nodes = (
(273,14,l),
(166,14,o),
(93,89,o),
(93,195,cs),
(93,220,l),
(47,220,l),
(47,70,l),
(108,25,o),
(211,-6,o),
(273,-6,c)
);
},
{
closed = 1;
nodes = (
(465,492,l),
(465,642,l),
(412,681,o),
(335,705,o),
(264,705,c),
(264,685,l),
(366,685,o),
(419,617,o),
(419,517,cs),
(419,492,l)
);
}
);
width = 550;
}
);
unicode = 83;
},
{
glyphname = Germandbls;
lastChange = "2023-05-27 19:52:02 +0000";
layers = (
{
layerId = m01;
shapes = (
{
closed = 1;
nodes = (
(535,-11,o),
(587,44,o),
(587,142,cs),
(587,306,o),
(327,314,o),
(327,392,cs),
(327,436,o),
(354,455,o),
(403,455,c),
(403,485,l),
(322,485,o),
(277,437,o),
(277,352,cs),
(277,182,o),
(537,190,o),
(537,92,cs),
(537,42,o),
(503,14,o),
(441,14,c),
(441,-11,l)
);
},
{
closed = 1;
nodes = (
(187,0,l),
(187,550,l),
(87,550,l),
(87,62,ls),
(87,39,o),
(73,25,o),
(52,25,cs),
(7,25,l),
(7,0,l)
);
},
{
closed = 1;
nodes = (
(441,14,l),
(374,14,o),
(326,57,o),
(326,118,cs),
(326,140,l),
(274,140,l),
(274,47,l),
(321,13,o),
(398,-11,o),
(441,-11,c)
);
},
{
closed = 1;
nodes = (
(555,474,l),
(555,496,o),
(555,510,o),
(555,530,cs),
(555,625,o),
(432,705,o),
(301,705,cs),
(200,705,o),
(118,694,o),
(87,680,c),
(87,550,l),
(187,550,l),
(187,664,l),
(205,672,o),
(249,680,o),
(301,680,cs),
(383,680,o),
(465,610,o),
(465,530,cs),
(465,507,o),
(465,485,o),
(465,459,c)
);
},
{
closed = 1;
nodes = (
(555,474,l),
(521,481,o),
(468,485,o),
(403,485,c),
(403,455,l),
(468,455,o),
(518,451,o),
(555,445,c)
);
}
);
width = 624;
}
);
unicode = 7838;
},
{
glyphname = T;
lastChange = "2023-05-26 21:00:45 +0000";
layers = (
{
layerId = m01;
shapes = (
{
closed = 1;
nodes = (
(337,326,l),
(337,637,ls),
(337,661,o),
(350,674,o),
(372,674,cs),
(437,674,l),
(437,700,l),
(322,700,ls),
(302,700,o),
(167,700,o),
(147,700,c),
(147,674,l),
(202,674,ls),
(224,674,o),
(237,661,o),
(237,637,cs),
(237,326,l)
);
},
{
closed = 1;
nodes = (
(322,0,ls),
(342,0,o),
(417,0,o),
(437,0,c),
(437,26,l),
(372,26,ls),
(350,26,o),
(337,39,o),
(337,63,cs),
(337,326,l),
(237,326,l),
(237,63,ls),
(237,39,o),
(224,26,o),
(202,26,cs),
(147,26,l),
(147,0,l)
);
},
{
closed = 1;
nodes = (
(36,480,l),
(36,535,ls),
(36,609,o),
(73,650,o),
(140,650,cs),
(238,650,l),
(319,700,l),
(10,700,l),
(10,480,l)
);
},
{
closed = 1;
nodes = (
(564,480,l),
(564,700,l),
(255,700,l),
(336,650,l),
(454,650,ls),
(508,650,o),
(538,609,o),
(538,535,cs),
(538,480,l)
);
}
);
width = 574;
}
);
unicode = 84;
},
{
glyphname = U;
lastChange = "2023-05-26 16:23:04 +0000";
layers = (
{
layerId = m01;
shapes = (
{
closed = 1;
nodes = (
(212,220,l),
(212,637,ls),
(212,661,o),
(225,674,o),
(247,674,cs),
(312,674,l),
(312,700,l),
(197,700,ls),
(177,700,o),
(42,700,o),
(22,700,c),
(22,674,l),
(77,674,ls),
(99,674,o),
(112,661,o),
(112,637,cs),
(112,220,l)
);
},
{
closed = 1;
nodes = (
(521,-5,o),
(607,82,o),
(607,220,c),
(577,220,l),
(577,115,o),
(504,46,o),
(373,46,cs),
(270,46,o),
(212,115,o),
(212,220,c),
(112,220,l),
(112,82,o),
(202,-5,o),
(365,-5,cs)
);
},
{
closed = 1;
nodes = (
(607,220,l),
(607,637,ls),
(607,661,o),
(620,674,o),
(642,674,cs),
(707,674,l),
(707,700,l),
(592,700,ls),
(572,700,o),
(507,700,o),
(487,700,c),
(487,674,l),
(542,674,ls),
(564,674,o),
(577,661,o),
(577,637,cs),
(577,220,l)
);
}
);
width = 719;
}
);
unicode = 85;
},
{
glyphname = V;
lastChange = "2023-05-26 21:03:34 +0000";
layers = (
{
layerId = m01;
shapes = (
{
closed = 1;
nodes = (
(366,122,l),
(165,648,ls),
(159,665,o),
(180,674,o),
(223,674,cs),
(278,674,l),
(278,700,l),
(173,700,ls),
(-92,700,o),
(-18,700,o),
(-38,700,c),
(-38,674,l),
(27,674,ls),
(41,674,o),
(52,665,o),
(58,648,cs),
(309,-10,l)
);
},
{
closed = 1;
nodes = (
(339,-10,l),
(574,653,ls),
(579,666,o),
(589,674,o),
(604,674,cs),
(659,674,l),
(659,700,l),
(544,700,ls),
(524,700,o),
(459,700,o),
(439,700,c),
(439,674,l),
(484,674,ls),
(514,674,o),
(528,666,o),
(524,653,cs),
(309,-10,l)
);
}
);
width = 631;
}
);
unicode = 86;
},
{
glyphname = W;
lastChange = "2023-05-27 20:00:12 +0000";
layers = (
{
layerId = m01;
shapes = (
{
closed = 1;
nodes = (
(317,138,l),
(132,649,ls),
(126,666,o),
(147,675,o),
(191,675,cs),
(246,675,l),
(246,701,l),
(141,701,ls),
(-124,701,o),
(-10,701,o),
(-30,701,c),
(-30,675,l),
(-5,675,ls),
(9,675,o),
(20,666,o),
(26,649,cs),
(262,-9,l)
);
},
{
closed = 1;
nodes = (
(292,-9,l),
(512,654,ls),
(516,667,o),
(503,675,o),
(517,675,cs),
(577,675,l),
(577,701,l),
(492,701,ls),
(472,701,o),
(437,701,o),
(417,701,c),
(417,675,l),
(457,675,ls),
(474,675,o),
(481,667,o),
(477,654,cs),
(262,-9,l)
);
},
{
closed = 1;
nodes = (
(695,134,l),
(514,657,ls),
(508,674,o),
(519,675,o),
(544,675,cs),
(579,675,l),
(579,701,l),
(504,701,l),
(458,513,l),
(640,-9,l)
);
},
{
closed = 1;
nodes = (
(670,-9,l),
(890,654,ls),
(894,667,o),
(905,670,o),
(920,670,cs),
(965,670,l),
(965,701,l),
(870,701,ls),
(850,701,o),
(785,701,o),
(765,701,c),
(765,675,l),
(815,675,ls),
(845,675,o),
(859,667,o),
(855,654,cs),
(640,-9,l)
);
}
);
width = 915;
}
);
unicode = 87;
},
{
glyphname = X;
lastChange = "2023-05-24 10:44:07 +0000";
layers = (
{
layerId = m01;
shapes = (
{
closed = 1;
nodes = (
(479,0,ls),
(744,0,o),
(670,0,o),
(690,0,c),
(690,26,l),
(625,26,ls),
(611,26,o),
(603,37,o),
(594,52,cs),
(378,417,l),
(316,300,l),
(468,52,l),
(474,35,o),
(460,26,o),
(429,26,cs),
(374,26,l),
(374,0,l)
);
},
{
closed = 1;
nodes = (
(138,0,ls),
(158,0,o),
(203,0,o),
(223,0,c),
(223,26,l),
(188,26,ls),
(161,26,o),
(144,35,o),
(148,47,c),
(338,346,l),
(308,346,l),
(98,47,ls),
(90,35,o),
(77,26,o),
(68,26,cs),
(13,26,l),
(13,0,l)
);
},
{
closed = 1;
nodes = (
(378,417,l),
(234,649,l),
(228,666,o),
(242,675,o),
(273,675,cs),
(328,675,l),
(328,701,l),
(223,701,ls),
(-42,701,o),
(32,701,o),
(12,701,c),
(12,675,l),
(77,675,ls),
(91,675,o),
(99,664,o),
(108,649,cs),
(316,300,l)
);
},
{
closed = 1;
nodes = (
(355,355,l),
(574,654,ls),
(583,666,o),
(594,675,o),
(604,675,cs),
(649,675,l),
(649,701,l),
(534,701,ls),
(514,701,o),
(469,701,o),
(449,701,c),
(449,675,l),
(484,675,ls),
(511,675,o),
(528,666,o),
(524,654,c),
(325,355,l)
);
}
);
width = 702;
}
);
unicode = 88;
},
{
glyphname = Y;
lastChange = "2023-05-26 21:00:56 +0000";
layers = (
{
layerId = m01;
shapes = (
{
closed = 1;
nodes = (
(338,377,l),
(194,649,l),
(188,666,o),
(202,675,o),
(233,675,cs),
(288,675,l),
(288,701,l),
(183,701,ls),
(-82,701,o),
(-8,701,o),
(-28,701,c),
(-28,675,l),
(37,675,ls),
(51,675,o),
(60,664,o),
(68,649,cs),
(276,260,l)
);
},
{
closed = 1;
nodes = (
(327,0,ls),
(347,0,o),
(422,0,o),
(442,0,c),
(442,26,l),
(377,26,ls),
(356,26,o),
(342,40,o),
(342,63,cs),
(342,366,l),
(242,366,l),
(242,63,ls),
(242,40,o),
(228,26,o),
(207,26,cs),
(152,26,l),
(152,0,l)
);
},
{
closed = 1;
nodes = (
(302,289,l),
(514,654,ls),
(522,668,o),
(529,675,o),
(544,675,cs),
(609,675,l),
(609,701,l),
(494,701,ls),
(474,701,o),
(409,701,o),
(389,701,c),
(389,675,l),
(444,675,ls),
(474,675,o),
(488,667,o),
(484,654,c),
(272,289,l)
);
}
);
width = 581;
}
);
unicode = 89;
},
{
glyphname = Z;
lastChange = "2023-05-23 18:22:20 +0000";
layers = (
{
layerId = m01;
shapes = (
{
closed = 1;
nodes = (
(144,0,l),
(585,700,l),
(62,700,l),
(62,520,l),
(98,520,l),
(98,555,ls),
(98,622,o),
(138,670,o),
(195,670,cs),
(449,670,l),
(32,0,l)
);
},
{
closed = 1;
nodes = (
(584,0,l),
(584,180,l),
(548,180,l),
(548,145,ls),
(548,78,o),
(512,30,o),
(441,30,cs),
(123,30,l),
(32,0,l)
);
}
);
width = 634;
}
);
unicode = 90;
},
{
glyphname = a;
lastChange = "2023-05-27 19:19:25 +0000";
layers = (
{
layerId = m01;
shapes = (
{
closed = 1;
nodes = (
(320,-8,o),
(378,52,o),
(378,157,c),
(358,157,l),
(358,68,o),
(307,17,o),
(231,17,cs),
(183,17,o),
(152,58,o),
(152,127,cs),
(152,185,o),
(185,228,o),
(232,239,cs),
(301,256,o),
(364,253,o),
(403,264,c),
(403,309,l),
(374,288,o),
(308,285,o),
(224,269,cs),
(118,247,o),
(52,194,o),
(52,127,cs),
(52,42,o),
(119,-8,o),
(231,-8,cs)
);
},
{
closed = 1;
nodes = (
(139,351,l),
(139,373,ls),
(139,444,o),
(188,483,o),
(266,483,c),
(266,508,l),
(201,508,o),
(133,489,o),
(87,454,c),
(87,351,l)
);
},
{
closed = 1;
nodes = (
(535,0,l),
(535,26,l),
(480,26,ls),
(458,26,o),
(445,39,o),
(445,63,cs),
(445,374,l),
(358,374,l),
(358,0,l)
);
},
{
closed = 1;
nodes = (
(445,373,l),
(445,460,o),
(378,508,o),
(266,508,c),
(266,483,l),
(320,483,o),
(358,444,o),
(358,373,c)
);
}
);
width = 529;
}
);
unicode = 97;
},
{
glyphname = ae;
lastChange = "2023-05-25 21:05:43 +0000";
layers = (
{
layerId = m01;
shapes = (
{
closed = 1;
nodes = (
(320,-9,o),
(378,52,o),
(378,157,c),
(358,157,l),
(358,68,o),
(307,16,o),
(231,16,cs),
(183,16,o),
(152,58,o),
(152,127,cs),
(152,185,o),
(185,228,o),
(232,239,cs),
(301,256,o),
(364,253,o),
(403,264,c),
(403,309,l),
(374,288,o),
(308,285,o),
(224,269,cs),
(118,247,o),
(52,194,o),
(52,127,cs),
(52,42,o),
(119,-9,o),
(231,-9,cs)
);
},
{
closed = 1;
nodes = (
(139,347,l),
(139,369,ls),
(139,440,o),
(188,480,o),
(266,480,c),
(266,505,l),
(201,505,o),
(133,485,o),
(87,450,c),
(87,347,l)
);
},
{
closed = 1;
nodes = (
(378,157,l),
(445,370,l),
(358,370,l),
(358,157,l)
);
},
{
closed = 1;
nodes = (
(445,369,l),
(445,456,o),
(378,505,o),
(266,505,c),
(266,480,l),
(320,480,o),
(358,440,o),
(358,369,c)
);
},
{
closed = 1;
nodes = (
(696,-6,o),
(766,52,o),
(767,156,c),
(717,156,l),
(717,68,o),
(665,19,o),
(572,19,cs),
(490,19,o),
(445,102,o),
(445,252,cs),
(445,399,o),
(487,480,o),
(562,480,c),
(562,505,l),
(419,505,o),
(360,415,o),
(360,252,cs),
(360,86,o),
(423,-6,o),
(572,-6,cs)
);
},
{
closed = 1;
nodes = (
(758,253,l),
(758,281,l),
(431,281,l),
(431,253,l)
);
},
{
closed = 1;
nodes = (
(773,253,l),
(772,415,o),
(697,505,o),
(562,505,c),
(562,480,l),
(630,480,o),
(668,399,o),
(668,253,c)
);
}
);
width = 825;
}
);
unicode = 230;
},
{
glyphname = b;
lastChange = "2023-05-26 20:43:42 +0000";
layers = (
{
layerId = m01;
shapes = (
{
closed = 1;
nodes = (
(484,-5,o),
(570,85,o),
(570,248,cs),
(570,414,o),
(484,506,o),
(329,506,cs),
(218,506,o),
(157,414,o),
(157,248,cs),
(157,85,o),
(218,-5,o),
(329,-5,cs)
);
},
{
closed = 1;
nodes = (
(187,0,l),
(187,740,l),
(7,740,l),
(7,715,l),
(62,715,ls),
(84,715,o),
(97,702,o),
(97,678,cs),
(97,0,l)
);
},
{
closed = 1;
nodes = (
(238,20,o),
(187,101,o),
(187,248,cs),
(187,398,o),
(238,481,o),
(329,481,cs),
(420,481,o),
(464,398,o),
(464,248,cs),
(464,101,o),
(420,20,o),
(329,20,cs)
);
}
);
width = 624;
}
);
unicode = 98;
},
{
glyphname = c;
lastChange = "2023-05-26 12:41:07 +0000";
layers = (
{
layerId = m01;
shapes = (
{
closed = 1;
nodes = (
(403,-8,o),
(473,52,o),
(474,156,c),
(424,156,l),
(424,68,o),
(372,17,o),
(279,17,cs),
(197,17,o),
(152,102,o),
(152,252,cs),
(152,399,o),
(197,483,o),
(279,483,c),
(279,508,l),
(130,508,o),
(47,415,o),
(47,252,cs),
(47,86,o),
(130,-8,o),
(279,-8,cs)
);
},
{
closed = 1;
nodes = (
(451,329,l),
(451,462,l),
(409,490,o),
(347,508,o),
(279,508,c),
(279,483,l),
(369,483,o),
(419,434,o),
(419,351,cs),
(419,329,l)
);
}
);
width = 506;
}
);
unicode = 99;
},
{
glyphname = d;
lastChange = "2023-05-27 19:18:23 +0000";
layers = (
{
layerId = m01;
shapes = (
{
closed = 1;
nodes = (
(399,-7,o),
(460,85,o),
(460,248,cs),
(460,414,o),
(399,508,o),
(288,508,cs),
(133,508,o),
(47,414,o),
(47,248,cs),
(47,85,o),
(133,-7,o),
(288,-7,cs)
);
},
{
closed = 1;
nodes = (
(197,18,o),
(152,101,o),
(152,248,cs),
(152,398,o),
(197,483,o),
(288,483,cs),
(379,483,o),
(430,398,o),
(430,248,cs),
(430,101,o),
(379,18,o),
(288,18,cs)
);
},
{
closed = 1;
nodes = (
(610,0,l),
(610,26,l),
(555,26,ls),
(533,26,o),
(520,39,o),
(520,63,cs),
(520,740,l),
(350,740,l),
(350,715,l),
(395,715,ls),
(417,715,o),
(430,702,o),
(430,678,cs),
(430,0,l)
);
}
);
width = 624;
}
);
unicode = 100;
},
{
glyphname = eth;
lastChange = "2023-05-26 16:28:57 +0000";
layers = (
{
layerId = m01;
shapes = (
{
closed = 1;
nodes = (
(384,-6,o),
(510,86,o),
(510,252,cs),
(510,415,o),
(444,505,o),
(289,505,cs),
(133,505,o),
(47,415,o),
(47,252,cs),
(47,86,o),
(133,-6,o),
(289,-6,cs)
);
},
{
closed = 1;
nodes = (
(198,19,o),
(152,102,o),
(152,252,cs),
(152,399,o),
(198,480,o),
(289,480,cs),
(380,480,o),
(425,399,o),
(425,252,cs),
(425,102,o),
(380,19,o),
(289,19,cs)
);
},
{
closed = 1;
nodes = (
(436,-6,o),
(517,102,o),
(517,296,cs),
(517,558,o),
(393,734,o),
(223,734,c),
(223,704,l),
(320,704,o),
(410,565,o),
(423,370,cs),
(436,175,o),
(433,9,o),
(289,9,c),
(289,-6,l)
);
},
{
closed = 1;
nodes = (
(175,534,l),
(568,688,l),
(555,719,l),
(162,565,l)
);
}
);
width = 577;
}
);
unicode = 240;
},
{
glyphname = e;
lastChange = "2023-05-27 19:18:12 +0000";
layers = (
{
layerId = m01;
shapes = (
{
closed = 1;
nodes = (
(413,-7,o),
(483,52,o),
(484,156,c),
(434,156,l),
(434,68,o),
(382,18,o),
(289,18,cs),
(207,18,o),
(162,104,o),
(162,254,cs),
(162,401,o),
(204,484,o),
(279,484,c),
(279,509,l),
(136,509,o),
(57,417,o),
(57,254,cs),
(57,88,o),
(140,-7,o),
(289,-7,cs)
);
},
{
closed = 1;
nodes = (
(475,255,l),
(475,283,l),
(148,283,l),
(148,255,l)
);
},
{
closed = 1;
nodes = (
(490,255,l),
(489,417,o),
(414,509,o),
(279,509,c),
(279,484,l),
(347,484,o),
(385,401,o),
(385,255,c)
);
}
);
width = 547;
}
);
unicode = 101;
},
{
glyphname = f;
lastChange = "2023-05-26 20:33:47 +0000";
layers = (
{
layerId = m01;
shapes = (
{
closed = 1;
nodes = (
(292,0,l),
(292,25,l),
(237,25,ls),
(216,25,o),
(202,39,o),
(202,62,cs),
(202,540,l),
(112,540,l),
(112,62,ls),
(112,39,o),
(98,25,o),
(77,25,cs),
(22,25,l),
(22,0,l)
);
},
{
closed = 1;
nodes = (
(292,470,l),
(292,500,l),
(22,500,l),
(22,470,l)
);
},
{
closed = 1;
nodes = (
(202,540,l),
(202,656,o),
(233,737,o),
(281,737,c),
(281,762,l),
(176,762,o),
(112,672,o),
(112,540,c)
);
},
{
closed = 1;
nodes = (
(408,589,l),
(408,739,l),
(380,754,o),
(338,762,o),
(281,762,c),
(281,737,l),
(339,737,o),
(367,682,o),
(367,614,cs),
(367,608,o),
(366,598,o),
(366,589,c)
);
}
);
width = 304;
}
);
unicode = 102;
},
{
glyphname = g;
lastChange = "2023-05-26 20:43:45 +0000";
layers = (
{
layerId = m01;
shapes = (
{
closed = 1;
nodes = (
(392,44,o),
(450,129,o),
(450,282,cs),
(450,425,o),
(392,505,o),
(288,505,cs),
(136,505,o),
(52,424,o),
(52,277,cs),
(52,127,o),
(136,44,o),
(288,44,cs)
);
},
{
closed = 1;
nodes = (
(294,-181,l),
(204,-181,o),
(159,-136,o),
(159,-47,cs),
(159,-25,l),
(97,-25,l),
(97,-158,l),
(144,-192,o),
(231,-206,o),
(294,-206,c)
);
},
{
closed = 1;
nodes = (
(296,-206,ls),
(434,-206,o),
(510,-132,o),
(510,0,c),
(420,0,l),
(420,-116,o),
(376,-181,o),
(296,-181,cs),
(294,-181,l),
(294,-206,l)
);
},
{
closed = 1;
nodes = (
(201,69,o),
(157,143,o),
(157,277,cs),
(157,407,o),
(201,480,o),
(288,480,cs),
(373,480,o),
(420,409,o),
(420,282,cs),
(420,145,o),
(373,69,o),
(288,69,cs)
);
},
{
closed = 1;
nodes = (
(510,0,l),
(510,437,ls),
(510,461,o),
(523,474,o),
(545,474,cs),
(600,474,l),
(600,500,l),
(420,500,l),
(420,0,l)
);
}
);
width = 617;
}
);
unicode = 103;
},
{
glyphname = h;
lastChange = "2023-05-26 20:31:17 +0000";
layers = (
{
layerId = m01;
shapes = (
{
closed = 1;
nodes = (
(282,0,l),
(282,25,l),
(237,25,ls),
(215,25,o),
(202,38,o),
(202,62,cs),
(202,740,l),
(22,740,l),
(22,714,l),
(77,714,ls),
(99,714,o),
(112,701,o),
(112,677,cs),
(112,62,ls),
(112,38,o),
(99,25,o),
(77,25,cs),
(22,25,l),
(22,0,l)
);
},
{
closed = 1;
nodes = (
(602,0,l),
(602,25,l),
(557,25,ls),
(535,25,o),
(522,38,o),
(522,62,cs),
(522,362,l),
(432,362,l),
(432,62,ls),
(432,38,o),
(419,25,o),
(397,25,cs),
(352,25,l),
(352,0,l)
);
},
{
closed = 1;
nodes = (
(202,303,l),
(202,417,o),
(251,481,o),
(338,481,cs),
(398,481,o),
(432,438,o),
(432,362,c),
(522,362,l),
(522,455,o),
(456,506,o),
(338,506,cs),
(238,506,o),
(182,433,o),
(182,303,c)
);
}
);
width = 624;
}
);
unicode = 104;
},
{
glyphname = i;
lastChange = "2023-05-26 20:49:49 +0000";
layers = (
{
layerId = m01;
shapes = (
{
closed = 1;
nodes = (
(272,0,l),
(272,25,l),
(237,25,ls),
(216,25,o),
(202,39,o),
(202,62,cs),
(202,500,l),
(22,500,l),
(22,474,l),
(77,474,ls),
(98,474,o),
(112,460,o),
(112,437,cs),
(112,62,ls),
(112,39,o),
(98,25,o),
(77,25,cs),
(22,25,l),
(22,0,l)
);
},
{
closed = 1;
nodes = (
(178,608,o),
(207,637,o),
(207,673,cs),
(207,709,o),
(178,738,o),
(142,738,cs),
(106,738,o),
(77,709,o),
(77,673,cs),
(77,637,o),
(106,608,o),
(142,608,cs)
);
}
);
width = 304;
}
);
unicode = 105;
},
{
glyphname = idotless;
lastChange = "2023-05-26 20:29:51 +0000";
layers = (
{
layerId = m01;
shapes = (
{
closed = 1;
nodes = (
(272,0,l),
(272,25,l),
(237,25,ls),
(216,25,o),
(202,39,o),
(202,62,cs),
(202,500,l),
(22,500,l),
(22,474,l),
(77,474,ls),
(98,474,o),
(112,460,o),
(112,437,cs),
(112,62,ls),
(112,39,o),
(98,25,o),
(77,25,cs),
(22,25,l),
(22,0,l)
);
}
);
width = 304;
}
);
unicode = 305;
},
{
glyphname = ij;
lastChange = "2023-05-25 21:20:55 +0000";
layers = (
{
layerId = m01;
shapes = (
{
closed = 1;
nodes = (
(242,0,l),
(242,25,l),
(227,25,ls),
(206,25,o),
(202,39,o),
(202,62,cs),
(202,500,l),
(22,500,l),
(22,474,l),
(77,474,ls),
(98,474,o),
(112,460,o),
(112,437,cs),
(112,62,ls),
(112,39,o),
(98,25,o),
(77,25,cs),
(22,25,l),
(22,0,l)
);
},
{
closed = 1;
nodes = (
(178,608,o),
(207,637,o),
(207,673,cs),
(207,709,o),
(178,738,o),
(142,738,cs),
(106,738,o),
(77,709,o),
(77,673,cs),
(77,637,o),
(106,608,o),
(142,608,cs)
);
},
{
closed = 1;
nodes = (
(456,62,l),
(456,500,l),
(276,500,l),
(276,474,l),
(331,474,ls),
(352,474,o),
(366,460,o),
(366,437,cs),
(366,62,l)
);
},
{
closed = 1;
nodes = (
(373,-178,o),
(456,-89,o),
(456,-18,cs),
(456,62,l),
(366,62,l),
(366,-18,ls),
(366,-71,o),
(353,-139,o),
(301,-139,c),
(315,-178,l)
);
},
{
closed = 1;
nodes = (
(432,608,o),
(461,637,o),
(461,673,cs),
(461,709,o),
(432,738,o),
(396,738,cs),
(360,738,o),
(331,709,o),
(331,673,cs),
(331,637,o),
(360,608,o),
(396,608,cs)
);
}
);
width = 558;
}
);
unicode = 307;
},
{
glyphname = j;
lastChange = "2023-05-26 20:29:47 +0000";
layers = (
{
layerId = m01;
shapes = (
{
closed = 1;
nodes = (
(202,62,l),
(202,500,l),
(22,500,l),
(22,474,l),
(77,474,ls),
(98,474,o),
(112,460,o),
(112,437,cs),
(112,62,l)
);
},
{
closed = 1;
nodes = (
(119,-178,o),
(202,-89,o),
(202,-18,cs),
(202,62,l),
(112,62,l),
(112,-18,ls),
(112,-71,o),
(99,-139,o),
(47,-139,c),
(61,-178,l)
);
},
{
closed = 1;
nodes = (
(178,608,o),
(207,637,o),
(207,673,cs),
(207,709,o),
(178,738,o),
(142,738,cs),
(106,738,o),
(77,709,o),
(77,673,cs),
(77,637,o),
(106,608,o),
(142,608,cs)
);
}
);
width = 304;
}
);
unicode = 106;
},
{
glyphname = jdotless;
lastChange = "2023-05-25 21:17:34 +0000";
layers = (
{
layerId = m01;
shapes = (
{
closed = 1;
nodes = (
(202,62,l),
(202,500,l),
(22,500,l),
(22,474,l),
(77,474,ls),
(98,474,o),
(112,460,o),
(112,437,cs),
(112,62,l)
);
},
{
closed = 1;
nodes = (
(119,-178,o),
(202,-89,o),
(202,-18,cs),
(202,62,l),
(112,62,l),
(112,-18,ls),
(112,-71,o),
(99,-139,o),
(47,-139,c),
(61,-178,l)
);
}
);
width = 304;
}
);
unicode = 567;
},
{
glyphname = k;
lastChange = "2023-05-26 20:33:18 +0000";
layers = (
{
layerId = m01;
shapes = (
{
closed = 1;
nodes = (
(272,0,l),
(272,25,l),
(227,25,ls),
(206,25,o),
(192,39,o),
(192,62,cs),
(192,740,l),
(12,740,l),
(12,714,l),
(67,714,ls),
(88,714,o),
(102,700,o),
(102,677,cs),
(102,62,ls),
(102,39,o),
(88,25,o),
(67,25,cs),
(12,25,l),
(12,0,l)
);
},
{
closed = 1;
nodes = (
(594,0,l),
(594,25,l),
(569,25,ls),
(546,25,o),
(527,34,o),
(505,56,c),
(308,331,l),
(233,273,l),
(384,62,ls),
(400,40,o),
(386,25,o),
(349,25,cs),
(334,25,l),
(334,0,l)
);
},
{
closed = 1;
nodes = (
(452,434,l),
(483,457,o),
(508,475,o),
(529,475,cs),
(574,475,l),
(574,500,l),
(314,500,l),
(314,475,l),
(369,475,ls),
(420,475,o),
(422,461,o),
(396,439,c),
(191,260,l),
(191,220,l)
);
}
);
width = 604;
}
);
unicode = 107;
},
{
glyphname = l;
lastChange = "2023-05-26 20:42:48 +0000";
layers = (
{
layerId = m01;
shapes = (
{
closed = 1;
nodes = (
(282,0,l),
(282,25,l),
(237,25,ls),
(216,25,o),
(202,39,o),
(202,62,cs),
(202,740,l),
(22,740,l),
(22,714,l),
(77,714,ls),
(98,714,o),
(112,700,o),
(112,677,cs),
(112,62,ls),
(112,39,o),
(98,25,o),
(77,25,cs),
(22,25,l),
(22,0,l)
);
}
);
width = 314;
}
);
unicode = 108;
},
{
glyphname = m;
lastChange = "2023-05-27 19:18:33 +0000";
layers = (
{
layerId = m01;
shapes = (
{
closed = 1;
nodes = (
(272,0,l),
(272,25,l),
(237,25,ls),
(215,25,o),
(202,38,o),
(202,62,cs),
(202,500,l),
(22,500,l),
(22,474,l),
(77,474,ls),
(99,474,o),
(112,461,o),
(112,437,cs),
(112,62,ls),
(112,38,o),
(99,25,o),
(77,25,cs),
(22,25,l),
(22,0,l)
);
},
{
closed = 1;
nodes = (
(572,0,l),
(572,25,l),
(537,25,ls),
(515,25,o),
(502,38,o),
(502,62,cs),
(502,362,l),
(412,362,l),
(412,62,ls),
(412,38,o),
(399,25,o),
(377,25,cs),
(342,25,l),
(342,0,l)
);
},
{
closed = 1;
nodes = (
(202,303,l),
(202,417,o),
(247,483,o),
(328,483,cs),
(382,483,o),
(412,438,o),
(412,362,c),
(502,362,l),
(502,455,o),
(440,508,o),
(328,508,cs),
(234,508,o),
(182,433,o),
(182,303,c)
);
},
{
closed = 1;
nodes = (
(882,0,l),
(882,25,l),
(837,25,ls),
(815,25,o),
(802,38,o),
(802,62,cs),
(802,362,l),
(712,362,l),
(712,62,ls),
(712,38,o),
(699,25,o),
(677,25,cs),
(642,25,l),
(642,0,l)
);
},
{
closed = 1;
nodes = (
(502,303,l),
(502,417,o),
(547,483,o),
(628,483,cs),
(682,483,o),
(712,438,o),
(712,362,c),
(802,362,l),
(802,455,o),
(740,508,o),
(628,508,cs),
(534,508,o),
(482,433,o),
(482,303,c)
);
}
);
width = 904;
}
);
unicode = 109;
},
{
glyphname = n;
lastChange = "2023-05-27 19:18:40 +0000";
layers = (
{
layerId = m01;
shapes = (
{
closed = 1;
nodes = (
(282,0,l),
(282,25,l),
(237,25,ls),
(215,25,o),
(202,38,o),
(202,62,cs),
(202,500,l),
(22,500,l),
(22,474,l),
(77,474,ls),
(99,474,o),
(112,461,o),
(112,437,cs),
(112,62,ls),
(112,38,o),
(99,25,o),
(77,25,cs),
(22,25,l),
(22,0,l)
);
},
{
closed = 1;
nodes = (
(602,0,l),
(602,25,l),
(557,25,ls),
(535,25,o),
(522,38,o),
(522,62,cs),
(522,362,l),
(432,362,l),
(432,62,ls),
(432,38,o),
(419,25,o),
(397,25,cs),
(352,25,l),
(352,0,l)
);
},
{
closed = 1;
nodes = (
(202,303,l),
(202,417,o),
(251,483,o),
(338,483,cs),
(398,483,o),
(432,438,o),
(432,362,c),
(522,362,l),
(522,455,o),
(456,508,o),
(338,508,cs),
(238,508,o),
(182,433,o),
(182,303,c)
);
}
);
width = 624;
}
);
unicode = 110;
},
{
glyphname = o;
lastChange = "2023-05-26 20:43:17 +0000";
layers = (
{
layerId = m01;
shapes = (
{
closed = 1;
nodes = (
(444,-8,o),
(530,86,o),
(530,252,cs),
(530,415,o),
(444,508,o),
(289,508,cs),
(133,508,o),
(47,415,o),
(47,252,cs),
(47,86,o),
(133,-8,o),
(289,-8,cs)
);
},
{
closed = 1;
nodes = (
(198,17,o),
(152,102,o),
(152,252,cs),
(152,399,o),
(198,483,o),
(289,483,cs),
(380,483,o),
(425,399,o),
(425,252,cs),
(425,102,o),
(380,17,o),
(289,17,cs)
);
}
);
width = 577;
}
);
unicode = 111;
},
{
glyphname = oslash;
lastChange = "2023-05-25 21:22:24 +0000";
layers = (
{
layerId = m01;
shapes = (
{
ref = o;
},
{
closed = 1;
nodes = (
(26,0,l),
(85,0,l),
(551,500,l),
(492,500,l)
);
}
);
width = 577;
}
);
unicode = 248;
},
{
glyphname = oe;
lastChange = "2023-05-25 21:11:09 +0000";
layers = (
{
layerId = m01;
shapes = (
{
closed = 1;
nodes = (
(452,-6,o),
(538,86,o),
(538,252,cs),
(538,415,o),
(452,505,o),
(297,505,cs),
(141,505,o),
(55,415,o),
(55,252,cs),
(55,86,o),
(141,-6,o),
(297,-6,cs)
);
},
{
closed = 1;
nodes = (
(206,19,o),
(160,102,o),
(160,252,cs),
(160,399,o),
(206,480,o),
(297,480,cs),
(388,480,o),
(433,399,o),
(433,252,cs),
(433,102,o),
(388,19,o),
(297,19,cs)
);
},
{
closed = 1;
nodes = (
(789,-6,o),
(859,52,o),
(860,156,c),
(810,156,l),
(810,68,o),
(758,19,o),
(665,19,cs),
(583,19,o),
(538,102,o),
(538,252,cs),
(538,399,o),
(580,480,o),
(655,480,c),
(655,505,l),
(512,505,o),
(433,415,o),
(433,252,cs),
(433,86,o),
(516,-6,o),
(665,-6,cs)
);
},
{
closed = 1;
nodes = (
(851,253,l),
(851,281,l),
(524,281,l),
(524,253,l)
);
},
{
closed = 1;
nodes = (
(866,253,l),
(865,415,o),
(790,505,o),
(655,505,c),
(655,480,l),
(723,480,o),
(761,399,o),
(761,253,c)
);
}
);
width = 921;
}
);
unicode = 339;
},
{
glyphname = p;
lastChange = "2023-05-26 20:43:51 +0000";
layers = (
{
layerId = m01;
shapes = (
{
closed = 1;
nodes = (
(494,-8,o),
(580,86,o),
(580,252,cs),
(580,415,o),
(494,508,o),
(339,508,cs),
(228,508,o),
(167,415,o),
(167,252,cs),
(167,86,o),
(228,-8,o),
(339,-8,cs)
);
},
{
closed = 1;
nodes = (
(277,-200,l),
(277,-175,l),
(232,-175,ls),
(210,-175,o),
(197,-162,o),
(197,-138,cs),
(197,500,l),
(17,500,l),
(17,474,l),
(72,474,ls),
(94,474,o),
(107,461,o),
(107,437,cs),
(107,-138,ls),
(107,-162,o),
(94,-175,o),
(72,-175,cs),
(27,-175,l),
(27,-200,l)
);
},
{
closed = 1;
nodes = (
(248,17,o),
(197,102,o),
(197,252,cs),
(197,399,o),
(248,483,o),
(339,483,cs),
(430,483,o),
(474,399,o),
(474,252,cs),
(474,102,o),
(430,17,o),
(339,17,cs)
);
}
);
width = 634;
}
);
unicode = 112;
},
{
glyphname = thorn;
lastChange = "2023-05-25 21:13:37 +0000";
layers = (
{
layerId = m01;
shapes = (
{
closed = 1;
nodes = (
(484,-5,o),
(570,85,o),
(570,248,cs),
(570,414,o),
(484,506,o),
(329,506,cs),
(218,506,o),
(157,414,o),
(157,248,cs),
(157,85,o),
(218,-5,o),
(329,-5,cs)
);
},
{
closed = 1;
nodes = (
(267,-200,l),
(267,-175,l),
(222,-175,ls),
(200,-175,o),
(187,-162,o),
(187,-138,cs),
(187,0,l),
(97,0,l),
(97,-138,ls),
(97,-162,o),
(84,-175,o),
(62,-175,cs),
(17,-175,l),
(17,-200,l)
);
},
{
closed = 1;
nodes = (
(187,0,l),
(187,740,l),
(7,740,l),
(7,715,l),
(62,715,ls),
(84,715,o),
(97,702,o),
(97,678,cs),
(97,0,l)
);
},
{
closed = 1;
nodes = (
(238,20,o),
(187,101,o),
(187,248,cs),
(187,398,o),
(238,481,o),
(329,481,cs),
(420,481,o),
(464,398,o),
(464,248,cs),
(464,101,o),
(420,20,o),
(329,20,cs)
);
}
);
width = 603;
}
);
unicode = 254;
},
{
glyphname = q;
lastChange = "2023-05-26 20:43:22 +0000";
layers = (
{
layerId = m01;
shapes = (
{
closed = 1;
nodes = (
(416,-7,o),
(477,85,o),
(477,251,cs),
(477,414,o),
(416,504,o),
(305,504,cs),
(150,504,o),
(64,414,o),
(64,251,cs),
(64,85,o),
(150,-7,o),
(305,-7,cs)
);
},
{
closed = 1;
nodes = (
(218,18,o),
(169,101,o),
(169,251,cs),
(169,398,o),
(218,479,o),
(305,479,cs),
(396,479,o),
(447,398,o),
(447,251,cs),
(447,101,o),
(396,18,o),
(305,18,cs)
);
},
{
closed = 1;
nodes = (
(627,-201,l),
(627,-176,l),
(572,-176,ls),
(550,-176,o),
(537,-163,o),
(537,-139,cs),
(537,436,ls),
(537,460,o),
(550,473,o),
(572,473,cs),
(627,473,l),
(627,499,l),
(447,499,l),
(447,-139,ls),
(447,-163,o),
(434,-176,o),
(412,-176,cs),
(367,-176,l),
(367,-201,l)
);
}
);
width = 654;
}
);
unicode = 113;
},
{
glyphname = r;
lastChange = "2023-05-26 20:43:04 +0000";
layers = (
{
layerId = m01;
shapes = (
{
closed = 1;
nodes = (
(282,0,l),
(282,25,l),
(237,25,ls),
(215,25,o),
(202,38,o),
(202,62,cs),
(202,500,l),
(22,500,l),
(22,474,l),
(77,474,ls),
(99,474,o),
(112,461,o),
(112,437,cs),
(112,62,ls),
(112,38,o),
(99,25,o),
(77,25,cs),
(22,25,l),
(22,0,l)
);
},
{
closed = 1;
nodes = (
(202,303,l),
(202,417,o),
(237,481,o),
(301,481,cs),
(302,481,l),
(302,506,l),
(225,506,o),
(182,433,o),
(182,303,c)
);
},
{
closed = 1;
nodes = (
(434,340,l),
(434,463,l),
(400,491,o),
(353,506,o),
(302,506,c),
(302,481,l),
(341,481,o),
(363,440,o),
(363,365,cs),
(363,358,o),
(362,348,o),
(362,340,c)
);
}
);
width = 474;
}
);
unicode = 114;
},
{
glyphname = s;
lastChange = "2023-05-26 20:44:01 +0000";
layers = (
{
layerId = m01;
shapes = (
{
closed = 1;
nodes = (
(344,-11,o),
(405,50,o),
(403,142,cs),
(398,332,o),
(103,305,o),
(103,400,cs),
(103,450,o),
(141,488,o),
(209,488,c),
(209,513,l),
(109,513,o),
(53,450,o),
(53,365,cs),
(53,174,o),
(353,212,o),
(353,87,cs),
(353,43,o),
(312,14,o),
(237,14,c),
(237,-11,l)
);
},
{
closed = 1;
nodes = (
(237,14,l),
(147,14,o),
(82,67,o),
(82,156,cs),
(82,178,l),
(50,178,l),
(50,45,l),
(97,11,o),
(174,-11,o),
(237,-11,c)
);
},
{
closed = 1;
nodes = (
(381,329,l),
(381,462,l),
(338,490,o),
(276,513,o),
(209,513,c),
(209,488,l),
(299,488,o),
(349,434,o),
(349,351,cs),
(349,329,l)
);
}
);
width = 453;
}
);
unicode = 115;
},
{
glyphname = germandbls;
lastChange = "2023-05-26 21:17:05 +0000";
layers = (
{
layerId = m01;
shapes = (
{
closed = 1;
nodes = (
(522,-11,o),
(587,44,o),
(587,142,cs),
(587,306,o),
(327,314,o),
(327,412,cs),
(327,459,o),
(354,480,o),
(403,480,c),
(403,505,l),
(322,505,o),
(277,461,o),
(277,372,cs),
(277,202,o),
(537,210,o),
(537,92,cs),
(537,42,o),
(490,14,o),
(441,14,c),
(441,-11,l)
);
},
{
closed = 1;
nodes = (
(187,0,l),
(187,550,l),
(97,550,l),
(97,62,ls),
(97,39,o),
(83,25,o),
(62,25,cs),
(7,25,l),
(7,0,l)
);
},
{
closed = 1;
nodes = (
(441,14,l),
(374,14,o),
(326,57,o),
(326,118,cs),
(326,140,l),
(274,140,l),
(274,47,l),
(321,13,o),
(398,-11,o),
(441,-11,c)
);
},
{
closed = 1;
nodes = (
(515,494,l),
(515,516,o),
(515,530,o),
(515,550,cs),
(515,682,o),
(415,762,o),
(301,762,cs),
(176,762,o),
(97,675,o),
(97,550,c),
(187,550,l),
(187,659,o),
(231,737,o),
(301,737,cs),
(369,737,o),
(435,666,o),
(435,550,cs),
(435,527,o),
(435,510,o),
(435,484,c)
);
},
{
closed = 1;
nodes = (
(515,494,l),
(481,501,o),
(438,505,o),
(403,505,c),
(403,480,l),
(438,480,o),
(478,476,o),
(515,470,c)
);
}
);
width = 612;
}
);
unicode = 223;
},
{
glyphname = t;
lastChange = "2023-05-26 20:44:05 +0000";
layers = (
{
layerId = m01;
shapes = (
{
closed = 1;
nodes = (
(299,-5,o),
(332,30,o),
(332,92,c),
(302,92,l),
(302,49,o),
(283,25,o),
(250,25,cs),
(213,25,o),
(192,49,o),
(192,92,cs),
(192,647,l),
(102,595,l),
(102,92,ls),
(102,30,o),
(151,-5,o),
(230,-5,cs)
);
},
{
closed = 1;
nodes = (
(282,470,l),
(282,500,l),
(12,500,l),
(12,470,l)
);
}
);
width = 334;
}
);
unicode = 116;
},
{
glyphname = u;
lastChange = "2023-05-27 19:19:04 +0000";
layers = (
{
layerId = m01;
shapes = (
{
closed = 1;
nodes = (
(602,0,l),
(602,26,l),
(547,26,ls),
(525,26,o),
(512,39,o),
(512,63,cs),
(512,500,l),
(342,500,l),
(342,475,l),
(387,475,ls),
(409,475,o),
(422,462,o),
(422,438,cs),
(422,0,l)
);
},
{
closed = 1;
nodes = (
(386,-7,o),
(442,67,o),
(442,197,c),
(422,197,l),
(422,83,o),
(373,18,o),
(286,18,cs),
(226,18,o),
(192,62,o),
(192,138,c),
(102,138,l),
(102,45,o),
(168,-7,o),
(286,-7,cs)
);
},
{
closed = 1;
nodes = (
(192,138,l),
(192,500,l),
(22,500,l),
(22,475,l),
(67,475,ls),
(89,475,o),
(102,462,o),
(102,438,cs),
(102,138,l)
);
}
);
width = 624;
}
);
unicode = 117;
},
{
glyphname = v;
lastChange = "2023-05-23 18:50:23 +0000";
layers = (
{
layerId = m01;
shapes = (
{
closed = 1;
nodes = (
(296,112,l),
(165,438,l),
(158,461,o),
(177,475,o),
(217,475,cs),
(232,475,l),
(232,500,l),
(-28,500,l),
(-28,475,l),
(-3,475,ls),
(28,475,o),
(53,463,o),
(61,444,cs),
(249,-25,l)
);
},
{
closed = 1;
nodes = (
(423,434,l),
(435,459,o),
(467,475,o),
(507,475,cs),
(552,475,l),
(552,500,l),
(292,500,l),
(292,475,l),
(347,475,ls),
(384,475,o),
(401,461,o),
(392,439,cs),
(249,34,l),
(249,-26,l)
);
}
);
width = 524;
}
);
unicode = 118;
},
{
glyphname = w;
lastChange = "2023-05-26 20:16:07 +0000";
layers = (
{
layerId = m01;
shapes = (
{
closed = 1;
nodes = (
(265,126,l),
(140,438,l),
(133,461,o),
(148,475,o),
(177,475,cs),
(192,475,l),
(192,500,l),
(-28,500,l),
(-28,475,l),
(-3,475,ls),
(16,475,o),
(33,463,o),
(41,444,cs),
(229,-25,l)
);
},
{
closed = 1;
nodes = (
(383,434,l),
(395,459,o),
(424,475,o),
(457,475,cs),
(482,475,l),
(482,500,l),
(292,500,l),
(292,475,l),
(307,475,ls),
(344,475,o),
(361,461,o),
(352,439,c),
(229,34,l),
(229,-26,l)
);
},
{
closed = 1;
nodes = (
(553,117,l),
(439,438,ls),
(432,461,o),
(444,475,o),
(467,475,cs),
(482,475,l),
(482,500,l),
(292,500,l),
(292,475,l),
(307,475,ls),
(320,475,o),
(333,463,o),
(341,444,cs),
(509,-25,l)
);
},
{
closed = 1;
nodes = (
(683,434,l),
(695,459,o),
(720,475,o),
(747,475,cs),
(772,475,l),
(772,500,l),
(552,500,l),
(552,475,l),
(607,475,ls),
(644,475,o),
(661,461,o),
(652,439,cs),
(509,34,l),
(509,-26,l)
);
}
);
width = 754;
}
);
unicode = 119;
},
{
glyphname = x;
lastChange = "2023-05-24 10:29:21 +0000";
layers = (
{
layerId = m01;
shapes = (
{
closed = 1;
nodes = (
(252,0,l),
(252,25,l),
(217,25,ls),
(175,25,o),
(159,38,o),
(172,61,c),
(305,250,l),
(315,300,l),
(138,66,l),
(121,40,o),
(94,25,o),
(57,25,cs),
(12,25,l),
(12,0,l)
);
},
{
closed = 1;
nodes = (
(320,291,l),
(218,438,ls),
(202,462,o),
(215,475,o),
(252,475,cs),
(267,475,l),
(267,500,l),
(27,500,l),
(27,475,l),
(52,475,ls),
(82,475,o),
(104,464,o),
(116,444,c),
(273,215,l)
);
},
{
closed = 1;
nodes = (
(567,0,l),
(567,25,l),
(542,25,ls),
(511,25,o),
(482,36,o),
(472,56,c),
(315,299,l),
(268,217,l),
(375,62,l),
(389,38,o),
(378,25,o),
(342,25,cs),
(327,25,l),
(327,0,l)
);
},
{
closed = 1;
nodes = (
(446,434,l),
(462,460,o),
(489,475,o),
(527,475,cs),
(572,475,l),
(572,500,l),
(332,500,l),
(332,475,l),
(387,475,ls),
(415,475,o),
(424,462,o),
(412,439,c),
(262,223,l),
(276,214,l)
);
}
);
width = 584;
}
);
unicode = 120;
},
{
glyphname = y;
lastChange = "2023-05-26 20:52:09 +0000";
layers = (
{
layerId = m01;
shapes = (
{
closed = 1;
nodes = (
(296,116,l),
(161,438,l),
(154,462,o),
(176,475,o),
(217,475,cs),
(232,475,l),
(232,500,l),
(-28,500,l),
(-28,475,l),
(-3,475,ls),
(30,475,o),
(53,464,o),
(61,444,cs),
(249,-6,l)
);
},
{
closed = 1;
nodes = (
(201,-200,l),
(201,-200,o),
(235,-106,o),
(270,-14,c),
(249,-6,l),
(208,-95,o),
(150,-158,o),
(90,-158,cs),
(68,-158,l),
(68,-200,l)
);
},
{
closed = 1;
nodes = (
(420,434,l),
(433,460,o),
(463,475,o),
(504,475,cs),
(549,475,l),
(549,500,l),
(289,500,l),
(289,475,l),
(344,475,ls),
(382,475,o),
(398,462,o),
(389,439,c),
(249,-6,l),
(270,-14,l)
);
}
);
width = 524;
}
);
unicode = 121;
},
{
glyphname = z;
lastChange = "2023-05-26 20:42:13 +0000";
layers = (
{
layerId = m01;
shapes = (
{
closed = 1;
nodes = (
(154,0,l),
(434,443,l),
(434,500,l),
(72,500,l),
(72,320,l),
(108,320,l),
(108,375,ls),
(108,436,o),
(121,470,o),
(145,470,cs),
(339,470,l),
(42,0,l)
);
},
{
closed = 1;
nodes = (
(454,0,l),
(454,180,l),
(418,180,l),
(418,125,ls),
(418,64,o),
(405,30,o),
(381,30,cs),
(123,30,l),
(42,0,l)
);
}
);
width = 506;
}
);
unicode = 122;
},
{
glyphname = f_f;
lastChange = "2023-05-27 19:05:32 +0000";
layers = (
{
layerId = m01;
shapes = (
{
closed = 1;
nodes = (
(262,0,l),
(262,25,l),
(237,25,ls),
(216,25,o),
(202,39,o),
(202,62,cs),
(202,540,l),
(112,540,l),
(112,62,ls),
(112,39,o),
(98,25,o),
(77,25,cs),
(22,25,l),
(22,0,l)
);
},
{
closed = 1;
nodes = (
(326,470,l),
(326,500,l),
(22,500,l),
(22,470,l)
);
},
{
closed = 1;
nodes = (
(202,540,l),
(202,678,o),
(220,737,o),
(261,737,c),
(261,762,l),
(157,762,o),
(112,695,o),
(112,540,c)
);
},
{
closed = 1;
nodes = (
(368,589,l),
(368,739,l),
(336,755,o),
(304,762,o),
(261,762,c),
(261,737,l),
(307,737,o),
(327,700,o),
(327,614,cs),
(327,608,o),
(326,598,o),
(326,589,c)
);
},
{
closed = 1;
nodes = (
(596,0,l),
(596,25,l),
(541,25,ls),
(520,25,o),
(506,39,o),
(506,62,cs),
(506,540,l),
(416,540,l),
(416,62,ls),
(416,39,o),
(402,25,o),
(381,25,cs),
(356,25,l),
(356,0,l)
);
},
{
closed = 1;
nodes = (
(596,470,l),
(596,500,l),
(326,500,l),
(326,470,l)
);
},
{
closed = 1;
nodes = (
(506,540,l),
(506,656,o),
(537,737,o),
(585,737,c),
(585,762,l),
(480,762,o),
(416,672,o),
(416,540,c)
);
},
{
closed = 1;
nodes = (
(712,589,l),
(712,739,l),
(684,754,o),
(642,762,o),
(585,762,c),
(585,737,l),
(643,737,o),
(671,682,o),
(671,614,cs),
(671,608,o),
(670,598,o),
(670,589,c)
);
}
);
width = 628;
}
);
metricLeft = f;
metricRight = f;
},
{
glyphname = fi;
lastChange = "2023-05-27 19:48:14 +0000";
layers = (
{
layerId = m01;
shapes = (
{
closed = 1;
nodes = (
(262,0,l),
(262,25,l),
(237,25,ls),
(216,25,o),
(202,39,o),
(202,62,cs),
(202,540,l),
(112,540,l),
(112,62,ls),
(112,39,o),
(98,25,o),
(77,25,cs),
(22,25,l),
(22,0,l)
);
},
{
closed = 1;
nodes = (
(301,470,l),
(301,500,l),
(46,500,l),
(46,470,l)
);
},
{
closed = 1;
nodes = (
(202,540,l),
(202,661,o),
(236,737,o),
(306,737,c),
(306,762,l),
(181,762,o),
(112,676,o),
(112,540,c)
);
},
{
closed = 1;
nodes = (
(448,579,l),
(448,729,l),
(407,749,o),
(359,762,o),
(306,762,c),
(306,737,l),
(374,737,o),
(407,686,o),
(407,604,cs),
(407,598,o),
(406,588,o),
(406,579,c)
);
},
{
closed = 1;
nodes = (
(551,0,l),
(551,25,l),
(516,25,ls),
(495,25,o),
(481,39,o),
(481,62,cs),
(481,500,l),
(301,500,l),
(301,470,l),
(356,470,ls),
(377,470,o),
(391,460,o),
(391,437,cs),
(391,62,ls),
(391,39,o),
(377,25,o),
(356,25,cs),
(331,25,l),
(331,0,l)
);
}
);
width = 588;
}
);
metricLeft = f;
metricRight = i;
unicode = 64257;
},
{
glyphname = fl;
lastChange = "2023-05-27 18:57:32 +0000";
layers = (
{
layerId = m01;
shapes = (
{
closed = 1;
nodes = (
(262,0,l),
(262,25,l),
(237,25,ls),
(216,25,o),
(202,39,o),
(202,62,cs),
(202,540,l),
(112,540,l),
(112,62,ls),
(112,39,o),
(98,25,o),
(77,25,cs),
(22,25,l),
(22,0,l)
);
},
{
closed = 1;
nodes = (
(412,470,l),
(412,500,l),
(22,500,l),
(22,470,l)
);
},
{
closed = 1;
nodes = (
(202,540,l),
(202,656,o),
(233,737,o),
(281,737,c),
(281,762,l),
(176,762,o),
(112,672,o),
(112,540,c)
);
},
{
closed = 1;
nodes = (
(438,589,l),
(486,721,l),
(458,736,o),
(338,762,o),
(281,762,c),
(281,737,l),
(339,737,o),
(396,682,o),
(396,614,cs),
(396,608,o),
(396,598,o),
(396,589,c)
);
},
{
closed = 1;
nodes = (
(566,0,l),
(566,25,l),
(521,25,ls),
(500,25,o),
(486,39,o),
(486,62,cs),
(486,721,l),
(333,741,l),
(333,734,l),
(361,714,ls),
(378,702,o),
(396,700,o),
(396,677,cs),
(396,62,ls),
(396,39,o),
(382,25,o),
(361,25,cs),
(336,25,l),
(336,0,l)
);
}
);
width = 588;
}
);
metricLeft = f;
unicode = 64258;
},
{
glyphname = zero;
lastChange = "2023-05-26 20:22:30 +0000";
layers = (
{
layerId = m01;
shapes = (
{
closed = 1;
nodes = (
(469,-8,o),
(551,106,o),
(551,354,cs),
(551,597,o),
(469,707,o),
(300,707,cs),
(131,707,o),
(48,597,o),
(48,354,cs),
(48,106,o),
(131,-8,o),
(300,-8,cs)
);
},
{
closed = 1;
nodes = (
(208,12,o),
(163,119,o),
(163,354,cs),
(163,584,o),
(208,687,o),
(300,687,cs),
(391,687,o),
(436,584,o),
(436,354,cs),
(436,119,o),
(391,12,o),
(300,12,cs)
);
}
);
width = 600;
}
);
unicode = 48;
},
{
glyphname = one;
lastChange = "2023-05-26 20:22:56 +0000";
layers = (
{
layerId = m01;
shapes = (
{
closed = 1;
nodes = (
(524,0,l),
(524,30,l),
(409,30,ls),
(389,30,o),
(374,44,o),
(374,67,cs),
(374,726,l),
(86,539,l),
(105,500,l),
(279,606,l),
(279,67,ls),
(279,44,o),
(265,30,o),
(244,30,cs),
(124,30,l),
(124,0,l)
);
}
);
width = 600;
}
);
unicode = 49;
},
{
glyphname = two;
lastChange = "2023-05-26 20:21:55 +0000";
layers = (
{
layerId = m01;
shapes = (
{
closed = 1;
nodes = (
(130,80,l),
(151,228,o),
(491,274,o),
(491,531,cs),
(491,639,o),
(407,707,o),
(274,707,c),
(274,682,l),
(339,682,o),
(380,624,o),
(380,531,cs),
(380,325,o),
(113,214,o),
(83,80,c)
);
},
{
closed = 1;
nodes = (
(509,0,l),
(509,80,l),
(83,80,l),
(67,0,l)
);
},
{
closed = 1;
nodes = (
(509,0,l),
(509,193,l),
(474,193,l),
(484,0,l)
);
},
{
closed = 1;
nodes = (
(162,539,l),
(160,561,ls),
(153,633,o),
(202,682,o),
(274,682,c),
(274,707,l),
(215,707,o),
(146,687,o),
(100,652,c),
(100,539,l)
);
}
);
width = 600;
}
);
unicode = 50;
},
{
glyphname = three;
lastChange = "2023-05-27 19:16:05 +0000";
layers = (
{
layerId = m01;
shapes = (
{
closed = 1;
nodes = (
(406,-8,o),
(495,77,o),
(495,200,cs),
(495,321,o),
(385,388,o),
(186,388,c),
(186,363,l),
(317,363,o),
(390,305,o),
(390,200,cs),
(390,96,o),
(342,26,o),
(265,26,c),
(265,-8,l)
);
},
{
closed = 1;
nodes = (
(265,26,l),
(173,26,o),
(125,74,o),
(125,144,c),
(75,144,l),
(75,56,o),
(154,-8,o),
(265,-8,c)
);
},
{
closed = 1;
nodes = (
(166,539,l),
(164,561,ls),
(157,639,o),
(203,683,o),
(278,683,c),
(278,708,l),
(216,708,o),
(148,686,o),
(104,652,c),
(104,539,l)
);
},
{
closed = 1;
nodes = (
(364,363,o),
(475,428,o),
(475,531,cs),
(475,639,o),
(399,708,o),
(278,708,c),
(278,683,l),
(337,683,o),
(370,624,o),
(370,531,cs),
(370,443,o),
(301,388,o),
(186,388,c),
(186,363,l)
);
}
);
width = 600;
}
);
unicode = 51;
},
{
glyphname = four;
lastChange = "2023-05-27 20:04:24 +0000";
layers = (
{
layerId = m01;
shapes = (
{
closed = 1;
nodes = (
(503,0,l),
(503,25,l),
(458,25,ls),
(437,25,o),
(423,39,o),
(423,62,cs),
(423,733,l),
(50,239,l),
(69,210,l),
(333,559,l),
(333,62,ls),
(333,39,o),
(319,25,o),
(298,25,cs),
(243,25,l),
(243,0,l)
);
},
{
closed = 1;
nodes = (
(530,189,l),
(530,249,l),
(510,249,l),
(50,239,l),
(50,189,l)
);
}
);
width = 600;
}
);
unicode = 52;
},
{
glyphname = five;
lastChange = "2023-05-27 19:39:45 +0000";
layers = (
{
layerId = m01;
shapes = (
{
closed = 1;
nodes = (
(427,-8,o),
(522,84,o),
(522,231,cs),
(522,355,o),
(431,433,o),
(285,433,cs),
(173,433,o),
(102,379,o),
(102,292,c),
(137,292,l),
(137,360,o),
(194,403,o),
(285,403,cs),
(366,403,o),
(417,337,o),
(417,231,cs),
(417,100,o),
(362,17,o),
(275,17,c),
(275,-8,l)
);
},
{
closed = 1;
nodes = (
(275,17,l),
(200,17,o),
(153,68,o),
(153,136,cs),
(153,158,l),
(91,158,l),
(91,55,l),
(135,21,o),
(213,-8,o),
(275,-8,c)
);
},
{
closed = 1;
nodes = (
(137,292,l),
(177,699,l),
(127,699,l),
(102,292,l)
);
},
{
closed = 1;
nodes = (
(460,619,l),
(460,699,l),
(127,699,l),
(127,619,l)
);
},
{
closed = 1;
nodes = (
(460,619,l),
(470,752,l),
(435,752,l),
(435,619,l)
);
}
);
width = 600;
}
);
unicode = 53;
},
{
glyphname = six;
lastChange = "2023-05-27 19:15:37 +0000";
layers = (
{
layerId = m01;
shapes = (
{
closed = 1;
nodes = (
(250,425,o),
(202,406,o),
(169,372,c),
(182,569,o),
(219,678,o),
(328,678,c),
(328,708,l),
(165,708,o),
(75,562,o),
(75,298,cs),
(75,101,o),
(156,-9,o),
(303,-9,cs),
(451,-9,o),
(534,69,o),
(534,208,cs),
(534,347,o),
(451,425,o),
(303,425,cs)
);
},
{
closed = 1;
nodes = (
(429,85,o),
(384,16,o),
(303,16,cs),
(221,16,o),
(176,85,o),
(176,208,cs),
(176,331,o),
(221,400,o),
(303,400,cs),
(384,400,o),
(429,331,o),
(429,208,cs)
);
},
{
closed = 1;
nodes = (
(328,678,l),
(389,678,o),
(434,637,o),
(454,562,c),
(514,562,l),
(494,656,o),
(427,708,o),
(328,708,c)
);
}
);
width = 600;
}
);
unicode = 54;
},
{
glyphname = seven;
lastChange = "2023-05-26 21:16:29 +0000";
layers = (
{
layerId = m01;
shapes = (
{
closed = 1;
nodes = (
(237,0,l),
(518,600,l),
(468,600,l),
(187,0,l)
);
},
{
closed = 1;
nodes = (
(120,507,l),
(110,700,l),
(85,700,l),
(85,507,l)
);
},
{
closed = 1;
nodes = (
(518,600,l),
(518,700,l),
(85,700,l),
(85,600,l)
);
}
);
width = 600;
}
);
unicode = 55;
},
{
glyphname = eight;
lastChange = "2023-05-27 20:03:17 +0000";
layers = (
{
layerId = m01;
shapes = (
{
closed = 1;
nodes = (
(429,-9,o),
(520,72,o),
(522,186,cs),
(526,409,o),
(165,405,o),
(165,562,cs),
(165,633,o),
(220,684,o),
(297,684,c),
(297,709,l),
(179,709,o),
(95,631,o),
(95,520,cs),
(95,284,o),
(453,301,o),
(453,117,cs),
(453,58,o),
(390,16,o),
(302,16,c),
(302,-9,l)
);
},
{
closed = 1;
nodes = (
(302,16,l),
(203,16,o),
(133,80,o),
(133,170,cs),
(133,272,o),
(195,344,o),
(282,344,cs),
(353,344,o),
(364,394,o),
(282,394,cs),
(158,394,o),
(71,301,o),
(71,170,cs),
(71,65,o),
(167,-9,o),
(302,-9,c)
);
},
{
closed = 1;
nodes = (
(297,684,l),
(373,684,o),
(426,628,o),
(426,549,cs),
(426,465,o),
(382,405,o),
(321,405,cs),
(250,405,o),
(239,355,o),
(321,355,cs),
(419,355,o),
(488,435,o),
(488,549,cs),
(488,643,o),
(409,709,o),
(297,709,c)
);
}
);
width = 600;
}
);
unicode = 56;
},
{
glyphname = nine;
lastChange = "2023-05-27 19:15:26 +0000";
layers = (
{
layerId = m01;
shapes = (
{
closed = 1;
nodes = (
(342,276,o),
(390,295,o),
(423,329,c),
(410,132,o),
(380,22,o),
(284,22,c),
(284,-8,l),
(434,-8,o),
(517,139,o),
(517,403,cs),
(517,599,o),
(436,708,o),
(289,708,cs),
(141,708,o),
(58,631,o),
(58,493,cs),
(58,354,o),
(141,276,o),
(289,276,cs)
);
},
{
closed = 1;
nodes = (
(163,615,o),
(208,683,o),
(289,683,cs),
(371,683,o),
(416,615,o),
(416,493,cs),
(416,370,o),
(371,301,o),
(289,301,cs),
(208,301,o),
(163,370,o),
(163,493,cs)
);
},
{
closed = 1;
nodes = (
(284,22,l),
(211,22,o),
(159,64,o),
(138,139,c),
(78,139,l),
(98,45,o),
(172,-8,o),
(284,-8,c)
);
}
);
width = 600;
}
);
unicode = 57;
},
{
glyphname = period;
lastChange = "2023-05-26 21:12:07 +0000";
layers = (
{
layerId = m01;
shapes = (
{
closed = 1;
nodes = (
(134,-3,o),
(160,23,o),
(160,57,cs),
(160,90,o),
(134,116,o),
(101,116,cs),
(67,116,o),
(41,90,o),
(41,57,cs),
(41,23,o),
(67,-3,o),
(101,-3,cs)
);
}
);
width = 200;
}
);
unicode = 46;
},
{
glyphname = comma;
lastChange = "2023-05-26 21:12:00 +0000";
layers = (
{
layerId = m01;
shapes = (
{
closed = 1;
nodes = (
(128,-3,o),
(154,24,o),
(154,57,cs),
(154,90,o),
(132,116,o),
(95,116,cs),
(61,116,o),
(35,90,o),
(35,57,cs),
(35,24,o),
(62,-3,o),
(95,-3,cs)
);
},
{
closed = 1;
nodes = (
(45,-129,o),
(58,-134,o),
(59,-134,cs),
(130,-100,o),
(154,-2,o),
(154,57,cs),
(154,64,o),
(105,50,o),
(105,40,cs),
(105,-1,o),
(110,-77,o),
(54,-104,c),
(45,-129,ls)
);
}
);
width = 200;
}
);
unicode = 44;
},
{
glyphname = colon;
lastChange = "2023-05-26 20:55:47 +0000";
layers = (
{
layerId = m01;
shapes = (
{
closed = 1;
nodes = (
(183,-3,o),
(209,23,o),
(209,57,cs),
(209,90,o),
(183,116,o),
(150,116,cs),
(116,116,o),
(90,90,o),
(90,57,cs),
(90,23,o),
(116,-3,o),
(150,-3,cs)
);
},
{
closed = 1;
nodes = (
(184,357,o),
(210,383,o),
(210,417,cs),
(210,450,o),
(184,476,o),
(151,476,cs),
(117,476,o),
(91,450,o),
(91,417,cs),
(91,383,o),
(117,357,o),
(151,357,cs)
);
}
);
width = 300;
}
);
unicode = 58;
},
{
glyphname = semicolon;
lastChange = "2023-05-27 19:41:18 +0000";
layers = (
{
layerId = m01;
shapes = (
{
closed = 1;
nodes = (
(174,357,o),
(200,383,o),
(200,417,cs),
(200,450,o),
(174,476,o),
(141,476,cs),
(107,476,o),
(81,450,o),
(81,417,cs),
(81,383,o),
(107,357,o),
(141,357,cs)
);
},
{
closed = 1;
nodes = (
(174,-3,o),
(200,24,o),
(200,57,cs),
(200,90,o),
(178,116,o),
(141,116,cs),
(107,116,o),
(81,90,o),
(81,57,cs),
(81,24,o),
(107,-3,o),
(141,-3,cs)
);
},
{
closed = 1;
nodes = (
(91,-129,o),
(104,-134,o),
(105,-134,cs),
(176,-100,o),
(200,-2,o),
(200,57,cs),
(200,64,o),
(151,50,o),
(151,40,cs),
(151,-1,o),
(156,-77,o),
(100,-104,c),
(91,-129,ls)
);
}
);
width = 290;
}
);
unicode = 59;
},
{
glyphname = exclam;
lastChange = "2023-05-27 19:37:34 +0000";
layers = (
{
layerId = m01;
shapes = (
{
closed = 1;
nodes = (
(215,-8,o),
(239,18,o),
(239,51,cs),
(239,83,o),
(215,108,o),
(185,108,cs),
(154,108,o),
(130,83,o),
(130,51,cs),
(130,18,o),
(154,-8,o),
(185,-8,cs)
);
},
{
closed = 1;
nodes = (
(204,222,o),
(207,288,o),
(215,374,cs),
(223,456,o),
(244,552,o),
(239,630,cs),
(236,669,o),
(204,686,o),
(184,686,cs),
(163,686,o),
(132,669,o),
(129,630,cs),
(124,553,o),
(145,456,o),
(153,374,cs),
(161,288,o),
(164,222,o),
(184,222,cs)
);
}
);
width = 365;
}
);
unicode = 33;
},
{
glyphname = question;
lastChange = "2023-05-27 19:38:55 +0000";
layers = (
{
layerId = m01;
shapes = (
{
closed = 1;
nodes = (
(288,-8,o),
(314,19,o),
(314,54,cs),
(314,88,o),
(288,115,o),
(255,115,cs),
(222,115,o),
(195,88,o),
(195,54,cs),
(195,19,o),
(222,-8,o),
(255,-8,cs)
);
},
{
closed = 1;
nodes = (
(377,707,o),
(465,638,o),
(465,541,cs),
(465,434,o),
(377,359,o),
(253,359,c),
(253,385,l),
(302,385,o),
(359,450,o),
(359,541,cs),
(359,623,o),
(302,681,o),
(253,681,c),
(253,707,l)
);
},
{
closed = 1;
nodes = (
(289,255,o),
(279,215,o),
(253,215,cs),
(226,215,o),
(217,255,o),
(211,385,c),
(295,385,l)
);
},
{
closed = 1;
nodes = (
(127,544,l),
(127,567,ls),
(127,640,o),
(179,681,o),
(253,681,c),
(253,707,l),
(192,707,o),
(121,686,o),
(74,650,c),
(74,544,l)
);
}
);
width = 539;
}
);
unicode = 63;
},
{
glyphname = bullet;
lastChange = "2023-05-27 11:24:19 +0000";
layers = (
{
layerId = m01;
shapes = (
{
closed = 1;
nodes = (
(453,20,o),
(552,118,o),
(552,247,cs),
(552,373,o),
(453,472,o),
(328,472,cs),
(198,472,o),
(100,373,o),
(100,247,cs),
(100,118,o),
(198,20,o),
(328,20,cs)
);
},
{
closed = 1;
nodes = (
(111,325,o),
(130,331,o),
(151,331,cs),
(165,331,o),
(231,298,o),
(244,295,c),
(304,339,l),
(306,369,o),
(305,471,o),
(326,471,cs),
(348,471,o),
(347,369,o),
(349,340,c),
(409,295,l),
(421,298,o),
(485,330,o),
(498,330,cs),
(521,330,o),
(542,324,o),
(542,309,cs),
(542,292,o),
(453,265,o),
(427,255,c),
(401,180,l),
(411,162,o),
(467,98,o),
(467,80,cs),
(467,68,o),
(461,59,o),
(449,59,cs),
(432,59,o),
(384,134,o),
(367,151,c),
(286,151,l),
(270,134,o),
(221,59,o),
(204,59,cs),
(192,59,o),
(186,69,o),
(186,81,cs),
(186,98,o),
(241,161,o),
(251,178,c),
(227,255,l),
(201,265,o),
(111,290,o),
(111,309,cs)
);
}
);
width = 652;
}
);
unicode = 8226;
},
{
glyphname = asterisk;
lastChange = "2023-05-27 19:36:02 +0000";
layers = (
{
layerId = m01;
shapes = (
{
closed = 1;
nodes = (
(73,523,o),
(141,493,o),
(163,493,cs),
(170,493,o),
(175,495,o),
(180,497,c),
(186,498,o),
(190,500,o),
(197,500,cs),
(203,500,o),
(208,499,o),
(215,497,cs),
(265,480,l),
(234,437,ls),
(222,422,o),
(214,419,o),
(205,416,cs),
(196,413,o),
(187,410,o),
(176,395,cs),
(162,378,o),
(148,347,o),
(148,325,cs),
(148,312,o),
(155,300,o),
(169,300,cs),
(191,300,o),
(224,328,o),
(238,349,cs),
(249,365,o),
(249,375,o),
(250,385,cs),
(250,394,o),
(250,403,o),
(260,418,cs),
(291,460,l),
(323,418,ls),
(333,405,o),
(334,396,o),
(334,387,cs),
(334,377,o),
(332,366,o),
(344,348,cs),
(359,329,o),
(392,300,o),
(414,300,cs),
(428,300,o),
(435,311,o),
(435,324,cs),
(435,346,o),
(420,378,o),
(407,395,cs),
(397,410,o),
(386,413,o),
(377,416,cs),
(367,418,o),
(358,421,o),
(347,437,cs),
(318,479,l),
(368,495,ls),
(376,497,o),
(382,498,o),
(387,498,cs),
(393,498,o),
(398,497,o),
(403,496,cs),
(408,494,o),
(413,493,o),
(419,493,cs),
(424,493,o),
(431,494,o),
(439,497,c),
(467,503,o),
(510,530,o),
(510,553,cs),
(510,570,o),
(487,577,o),
(463,577,cs),
(447,577,o),
(428,574,o),
(415,570,cs),
(398,564,o),
(392,556,o),
(387,548,cs),
(381,540,o),
(375,533,o),
(357,527,cs),
(308,511,l),
(308,564,ls),
(308,582,o),
(313,590,o),
(319,598,cs),
(324,606,o),
(330,614,o),
(330,633,cs),
(330,663,o),
(318,718,o),
(291,718,cs),
(265,718,o),
(252,663,o),
(252,633,cs),
(252,614,o),
(258,606,o),
(264,598,cs),
(270,590,o),
(275,582,o),
(275,564,cs),
(275,510,l),
(225,527,ls),
(208,533,o),
(203,540,o),
(197,547,cs),
(191,555,o),
(184,564,o),
(166,570,cs),
(153,574,o),
(133,578,o),
(116,578,cs),
(94,578,o),
(73,571,o),
(73,553,cs)
);
}
);
width = 600;
}
);
unicode = 42;
},
{
glyphname = numbersign;
lastChange = "2023-05-27 19:06:56 +0000";
layers = (
{
layerId = m01;
shapes = (
{
closed = 1;
nodes = (
(156,0,l),
(199,229,l),
(350,229,l),
(307,0,l),
(366,0,l),
(409,229,l),
(539,229,l),
(539,276,l),
(420,276,l),
(452,444,l),
(580,444,l),
(580,491,l),
(462,491,l),
(505,705,l),
(447,705,l),
(402,491,l),
(252,491,l),
(296,705,l),
(236,705,l),
(192,491,l),
(61,491,l),
(61,444,l),
(182,444,l),
(150,276,l),
(20,276,l),
(20,229,l),
(140,229,l),
(95,0,l)
);
},
{
closed = 1;
nodes = (
(209,276,l),
(242,444,l),
(392,444,l),
(361,276,l)
);
}
);
width = 600;
}
);
unicode = 35;
},
{
glyphname = slash;
lastChange = "2023-05-26 20:26:15 +0000";
layers = (
{
layerId = m01;
shapes = (
{
closed = 1;
nodes = (
(55,-170,l),
(132,-170,l),
(368,800,l),
(291,800,l)
);
}
);
width = 423;
}
);
unicode = 47;
},
{
glyphname = backslash;
lastChange = "2023-05-26 15:42:55 +0000";
layers = (
{
layerId = m01;
shapes = (
{
closed = 1;
nodes = (
(144,800,l),
(380,-170,l),
(457,-170,l),
(221,800,l)
);
}
);
width = 600;
}
);
unicode = 92;
},
{
glyphname = hyphen;
lastChange = "2023-05-27 17:18:45 +0000";
layers = (
{
layerId = m01;
shapes = (
{
closed = 1;
nodes = (
(85,246,l),
(415,246,l),
(415,326,l),
(85,326,l)
);
}
);
width = 500;
}
);
unicode = 45;
},
{
glyphname = endash;
lastChange = "2023-05-25 19:55:04 +0000";
layers = (
{
layerId = m01;
shapes = (
{
closed = 1;
nodes = (
(85,256,l),
(515,256,l),
(515,316,l),
(85,316,l)
);
}
);
width = 600;
}
);
unicode = 8211;
},
{
glyphname = emdash;
lastChange = "2023-05-25 19:55:19 +0000";
layers = (
{
layerId = m01;
shapes = (
{
closed = 1;
nodes = (
(0,256,l),
(600,256,l),
(600,316,l),
(0,316,l)
);
}
);
width = 600;
}
);
unicode = 8212;
},
{
glyphname = underscore;
lastChange = "2023-05-25 19:55:43 +0000";
layers = (
{
layerId = m01;
shapes = (
{
closed = 1;
nodes = (
(0,-130,l),
(600,-130,l),
(600,-90,l),
(0,-90,l)
);
}
);
width = 600;
}
);
unicode = 95;
},
{
glyphname = parenleft;
lastChange = "2023-05-26 15:43:11 +0000";
layers = (
{
layerId = m01;
shapes = (
{
closed = 1;
nodes = (
(279,704,l),
(219,630,o),
(179,494,o),
(179,267,cs),
(179,22,o),
(220,-94,o),
(280,-183,c),
(240,-183,l),
(180,-94,o),
(109,19,o),
(109,267,cs),
(109,494,o),
(179,630,o),
(239,703,cs),
(240,704,o),
(239,704,o),
(239,704,cs)
);
}
);
width = 300;
}
);
unicode = 40;
},
{
glyphname = parenright;
lastChange = "2023-05-26 20:52:03 +0000";
layers = (
{
layerId = m01;
shapes = (
{
closed = 1;
nodes = (
(61,704,o),
(60,704,o),
(61,703,cs),
(121,630,o),
(191,494,o),
(191,267,cs),
(191,19,o),
(120,-94,o),
(60,-183,c),
(20,-183,l),
(80,-94,o),
(121,22,o),
(121,267,cs),
(121,494,o),
(81,630,o),
(21,704,c),
(61,704,ls)
);
}
);
width = 300;
}
);
unicode = 41;
},
{
glyphname = braceleft;
lastChange = "2023-05-26 15:43:28 +0000";
layers = (
{
layerId = m01;
shapes = (
{
closed = 1;
nodes = (
(159,187,o),
(204,146,o),
(204,105,cs),
(204,-64,ls),
(204,-198,o),
(245,-256,o),
(386,-256,c),
(386,-231,l),
(301,-231,o),
(264,-181,o),
(264,-64,cs),
(264,105,ls),
(264,149,o),
(233,192,o),
(161,249,c),
(233,306,o),
(264,347,o),
(264,387,cs),
(264,528,ls),
(264,645,o),
(301,695,o),
(386,695,c),
(386,720,l),
(245,720,o),
(204,662,o),
(204,528,cs),
(204,386,ls),
(204,333,o),
(159,294,o),
(100,257,c),
(100,243,l)
);
}
);
width = 406;
}
);
unicode = 123;
},
{
glyphname = bracketleft;
lastChange = "2023-05-26 15:44:15 +0000";
layers = (
{
layerId = m01;
shapes = (
{
closed = 1;
nodes = (
(120,-183,l),
(330,-183,l),
(330,-148,l),
(190,-148,l),
(190,700,l),
(342,700,l),
(342,735,l),
(120,735,l)
);
}
);
width = 362;
}
);
unicode = 91;
},
{
glyphname = guilsinglleft;
lastChange = "2023-05-26 21:02:26 +0000";
layers = (
{
layerId = m01;
shapes = (
{
closed = 1;
nodes = (
(281,71,l),
(199,264,l),
(281,454,l),
(260,473,l),
(100,283,l),
(100,248,l),
(260,55,l)
);
}
);
width = 381;
}
);
unicode = 8249;
},
{
glyphname = quotesingle;
lastChange = "2023-05-26 15:50:51 +0000";
layers = (
{
layerId = m01;
shapes = (
{
closed = 1;
nodes = (
(193,615,o),
(205,687,o),
(205,692,cs),
(204,716,o),
(182,735,o),
(155,735,cs),
(127,735,o),
(105,716,o),
(105,692,cs),
(105,684,o),
(116,615,o),
(141,448,c),
(167,448,l)
);
}
);
width = 310;
}
);
unicode = 39;
},
{
glyphname = florin;
lastChange = "2023-05-27 19:49:06 +0000";
layers = (
{
layerId = m01;
shapes = (
{
closed = 1;
nodes = (
(171,472,l),
(269,472,l),
(258,283,o),
(253,-145,o),
(146,-145,c),
(146,-170,l),
(352,-170,o),
(334,285,o),
(352,472,c),
(464,472,l),
(468,500,l),
(356,500,l),
(366,620,o),
(397,687,o),
(451,687,c),
(451,707,l),
(342,707,o),
(283,616,o),
(274,500,c),
(175,500,l)
);
},
{
closed = 1;
nodes = (
(146,-145,l),
(97,-145,o),
(70,-112,o),
(70,-53,cs),
(70,-34,l),
(35,-34,l),
(35,-118,l),
(69,-151,o),
(109,-170,o),
(146,-170,c)
);
},
{
closed = 1;
nodes = (
(612,544,l),
(612,654,l),
(566,688,o),
(508,707,o),
(451,707,c),
(451,687,l),
(525,687,o),
(566,645,o),
(566,569,cs),
(566,544,l)
);
}
);
width = 667;
}
);
unicode = 402;
},
{
glyphname = at;
lastChange = "2023-05-27 19:38:11 +0000";
layers = (
{
layerId = m01;
shapes = (
{
closed = 1;
nodes = (
(607,-130,o),
(520,-148,o),
(449,-148,cs),
(240,-148,o),
(93,14,o),
(93,244,cs),
(93,477,o),
(240,642,o),
(449,642,cs),
(668,642,o),
(805,488,o),
(805,244,cs),
(805,125,o),
(760,41,o),
(697,41,cs),
(664,41,o),
(641,71,o),
(641,114,cs),
(641,244,o),
(641,383,o),
(641,479,c),
(570,479,l),
(562,410,l),
(554,467,o),
(507,507,o),
(449,507,cs),
(323,507,o),
(234,398,o),
(234,244,cs),
(234,97,o),
(322,-7,o),
(446,-7,cs),
(501,-7,o),
(554,34,o),
(574,93,c),
(581,35,o),
(632,-6,o),
(697,-6,cs),
(791,-6,o),
(857,98,o),
(857,244,cs),
(857,514,o),
(700,684,o),
(449,684,cs),
(210,684,o),
(41,502,o),
(41,244,cs),
(41,-10,o),
(210,-190,o),
(449,-190,cs),
(531,-190,o),
(628,-169,o),
(683,-139,c),
(661,-105,l)
);
},
{
closed = 1;
nodes = (
(561,368,o),
(561,244,cs),
(561,126,o),
(510,33,o),
(446,33,cs),
(372,33,o),
(319,126,o),
(319,244,cs),
(319,368,o),
(372,467,o),
(446,467,cs),
(510,467,o)
);
}
);
width = 933;
}
);
unicode = 64;
},
{
glyphname = ampersand;
lastChange = "2023-05-27 16:38:29 +0000";
layers = (
{
layerId = m01;
shapes = (
{
closed = 1;
nodes = (
(589,0,l),
(741,0,l),
(741,25,l),
(716,25,ls),
(694,25,o),
(666,39,o),
(648,58,cs),
(510,203,o),
(361,367,o),
(288,455,cs),
(255,495,o),
(231,543,o),
(231,569,cs),
(231,631,o),
(268,676,o),
(321,677,c),
(321,707,l),
(216,706,o),
(141,649,o),
(141,569,cs),
(141,524,o),
(172,456,o),
(217,406,c)
);
},
{
closed = 1;
nodes = (
(473,-10,o),
(645,189,o),
(645,412,cs),
(645,445,o),
(695,474,o),
(752,474,c),
(752,499,l),
(512,499,l),
(512,474,l),
(541,474,ls),
(580,474,o),
(615,445,o),
(615,412,cs),
(615,216,o),
(491,42,o),
(352,42,cs),
(246,42,o),
(152,124,o),
(152,216,cs),
(152,333,o),
(460,453,o),
(460,609,cs),
(460,661,o),
(394,707,o),
(321,707,c),
(321,677,l),
(360,677,o),
(395,626,o),
(395,569,cs),
(395,443,o),
(77,333,o),
(77,136,cs),
(77,59,o),
(173,-10,o),
(281,-10,cs)
);
}
);
width = 785;
},
{
associatedMasterId = m01;
layerId = "EE4659AF-FA0C-4A42-AD5D-98A0FE039E29";
name = "26. Mai 23, 11:48";
shapes = (
{
closed = 1;
nodes = (
(569,0,l),
(721,0,l),
(721,25,l),
(696,25,ls),
(674,25,o),
(649,37,o),
(628,58,cs),
(479,208,o),
(350,348,o),
(265,452,c),
(266,453,l),
(265,452,l),
(232,495,o),
(211,539,o),
(211,577,cs),
(211,639,o),
(244,674,o),
(301,675,c),
(301,704,l),
(185,703,o),
(121,658,o),
(121,577,cs),
(121,525,o),
(148,464,o),
(197,406,c),
(196,406,o),
(196,405,o),
(195,405,c)
);
}
);
width = 851;
},
{
associatedMasterId = m01;
layerId = "CA2175AC-8F9C-445B-970D-ACE5421E8CC4";
name = "26. Mai 23, 11:49";
shapes = (
{
closed = 1;
nodes = (
(422,-10,o),
(639,140,o),
(639,409,cs),
(639,451,o),
(684,474,o),
(765,474,c),
(765,499,l),
(495,499,l),
(495,474,l),
(524,474,l),
(568,470,o),
(592,448,o),
(592,411,cs),
(592,158,o),
(392,17,o),
(284,17,cs),
(183,17,o),
(127,81,o),
(127,196,cs),
(127,368,o),
(452,449,o),
(452,599,cs),
(452,666,o),
(399,704,o),
(304,704,c),
(304,675,l),
(365,675,o),
(399,648,o),
(399,599,cs),
(399,455,o),
(50,360,o),
(50,196,cs),
(50,64,o),
(134,-10,o),
(284,-10,cs)
);
}
);
width = 851;
}
);
unicode = 38;
},
{
glyphname = paragraph;
lastChange = "2023-05-27 16:35:35 +0000";
layers = (
{
layerId = m01;
shapes = (
{
closed = 1;
nodes = (
(437,-200,l),
(467,-200,l),
(467,700,l),
(437,700,l)
);
},
{
closed = 1;
nodes = (
(327,-200,l),
(387,-200,l),
(387,700,l),
(327,700,l)
);
},
{
closed = 1;
nodes = (
(539,700,o),
(304,700,o),
(274,700,cs),
(140,700,o),
(55,624,o),
(55,488,c),
(55,338,o),
(140,254,o),
(274,254,cs),
(452,254,l),
(452,282,l),
(359,282,l),
(359,672,l),
(547,672,l),
(547,700,l)
);
}
);
width = 602;
}
);
unicode = 182;
},
{
glyphname = section;
lastChange = "2023-05-27 20:04:45 +0000";
layers = (
{
layerId = m01;
shapes = (
{
closed = 1;
nodes = (
(428,184,o),
(510,256,o),
(510,370,cs),
(510,575,o),
(180,588,o),
(180,690,cs),
(180,745,o),
(227,779,o),
(301,779,c),
(301,807,l),
(192,807,o),
(123,749,o),
(123,657,cs),
(123,466,o),
(453,464,o),
(453,314,cs),
(453,245,o),
(393,201,o),
(298,201,c),
(298,184,l)
);
},
{
closed = 1;
nodes = (
(298,201,l),
(204,201,o),
(145,260,o),
(145,355,cs),
(145,385,o),
(88,402,o),
(112,344,cs),
(128,305,l),
(152,232,o),
(218,185,o),
(298,184,c)
);
},
{
closed = 1;
nodes = (
(407,-116,o),
(480,-58,o),
(480,35,cs),
(480,215,o),
(145,229,o),
(145,355,cs),
(145,438,o),
(201,490,o),
(290,490,c),
(290,507,l),
(167,507,o),
(89,435,o),
(89,321,cs),
(89,106,o),
(424,104,o),
(424,-21,cs),
(424,-62,o),
(372,-88,o),
(298,-88,c),
(298,-116,l)
);
},
{
closed = 1;
nodes = (
(298,-88,l),
(216,-88,o),
(164,-36,o),
(164,47,cs),
(164,67,l),
(126,67,l),
(126,-54,l),
(177,-92,o),
(243,-116,o),
(298,-116,c)
);
},
{
closed = 1;
nodes = (
(290,490,l),
(390,490,o),
(453,422,o),
(453,314,cs),
(453,358,o),
(489,320,o),
(476,345,cs),
(455,385,l),
(432,459,o),
(368,506,o),
(290,507,c)
);
},
{
closed = 1;
nodes = (
(301,779,l),
(384,779,o),
(426,726,o),
(426,642,cs),
(426,623,l),
(464,623,l),
(464,745,l),
(412,783,o),
(355,807,o),
(301,807,c)
);
}
);
width = 600;
}
);
unicode = 167;
},
{
glyphname = copyright;
lastChange = "2023-05-26 15:57:22 +0000";
layers = (
{
layerId = m01;
shapes = (
{
closed = 1;
nodes = (
(836,-216,o),
(1045,-4,o),
(1045,259,cs),
(1045,519,o),
(836,729,o),
(575,729,cs),
(312,729,o),
(100,519,o),
(100,259,cs),
(100,-4,o),
(312,-216,o),
(575,-216,cs)
);
},
{
closed = 1;
nodes = (
(318,-179,o),
(137,2,o),
(137,259,cs),
(137,513,o),
(318,692,o),
(575,692,cs),
(828,692,o),
(1007,513,o),
(1007,259,cs),
(1007,2,o),
(828,-179,o),
(575,-179,cs)
);
},
{
closed = 1;
nodes = (
(580,3,l),
(477,3,o),
(409,89,o),
(409,258,cs),
(409,423,o),
(477,507,o),
(580,507,c),
(580,544,l),
(415,544,o),
(312,433,o),
(312,258,cs),
(312,79,o),
(415,-33,o),
(580,-33,c)
);
},
{
closed = 1;
nodes = (
(651,-33,o),
(727,-9,o),
(779,29,c),
(779,150,l),
(739,150,l),
(739,129,ls),
(739,40,o),
(684,3,o),
(580,3,c),
(580,-33,l)
);
},
{
closed = 1;
nodes = (
(766,369,l),
(766,490,l),
(722,523,o),
(650,544,o),
(580,544,c),
(580,507,l),
(677,507,o),
(727,474,o),
(727,389,cs),
(727,369,l)
);
}
);
width = 1145;
}
);
unicode = 169;
},
{
glyphname = registered;
lastChange = "2023-05-27 17:19:10 +0000";
layers = (
{
layerId = m01;
shapes = (
{
closed = 1;
nodes = (
(416,323,o),
(506,414,o),
(506,527,cs),
(506,639,o),
(416,729,o),
(304,729,cs),
(191,729,o),
(100,639,o),
(100,527,cs),
(100,414,o),
(191,323,o),
(304,323,cs)
);
},
{
closed = 1;
nodes = (
(127,624,o),
(205,702,o),
(304,702,cs),
(401,702,o),
(479,624,o),
(479,527,cs),
(479,428,o),
(401,350,o),
(304,350,cs),
(205,350,o),
(127,428,o),
(127,527,cs)
);
},
{
closed = 1;
nodes = (
(273,428,l),
(307,428,l),
(307,446,l),
(288,446,ls),
(282,446,o),
(278,450,o),
(278,457,cs),
(278,515,l),
(287,515,o),
(296,516,o),
(305,517,c),
(351,456,ls),
(356,449,o),
(352,445,o),
(341,445,cs),
(331,445,l),
(331,428,l),
(414,428,l),
(414,445,l),
(407,445,ls),
(399,445,o),
(392,449,o),
(388,455,cs),
(334,525,l),
(359,535,o),
(373,553,o),
(373,577,cs),
(373,612,o),
(351,635,o),
(294,635,cs),
(221,635,l),
(221,617,l),
(238,617,ls),
(244,617,o),
(248,613,o),
(248,606,cs),
(248,457,ls),
(248,450,o),
(244,446,o),
(238,446,cs),
(221,446,l),
(221,428,l)
);
},
{
closed = 1;
nodes = (
(278,606,ls),
(278,613,o),
(282,617,o),
(288,617,cs),
(294,617,ls),
(328,617,o),
(341,605,o),
(341,574,cs),
(341,540,o),
(312,532,o),
(278,532,c)
);
}
);
width = 600;
}
);
unicode = 174;
},
{
glyphname = trademark;
lastChange = "2023-05-27 17:21:09 +0000";
layers = (
{
layerId = m01;
shapes = (
{
closed = 1;
nodes = (
(82,527,ls),
(82,521,o),
(78,517,o),
(72,517,cs),
(47,517,l),
(47,500,l),
(105,500,l),
(147,500,l),
(147,517,l),
(119,517,ls),
(113,517,o),
(109,521,o),
(109,527,cs),
(109,665,l),
(109,668,l),
(151,668,ls),
(166,668,o),
(164,657,o),
(164,637,cs),
(164,622,l),
(182,622,l),
(182,692,l),
(105,692,l),
(104,692,l),
(10,692,l),
(10,622,l),
(27,622,l),
(27,637,ls),
(27,657,o),
(27,668,o),
(45,668,cs),
(82,668,l),
(82,665,l)
);
},
{
closed = 1;
nodes = (
(239,500,l),
(271,500,l),
(271,517,l),
(253,517,ls),
(247,517,o),
(243,521,o),
(243,527,cs),
(243,670,l),
(310,500,l),
(318,500,l),
(389,653,l),
(389,527,ls),
(389,521,o),
(385,517,o),
(379,517,cs),
(362,517,l),
(362,500,l),
(393,500,l),
(444,500,l),
(444,517,l),
(426,517,ls),
(420,517,o),
(416,521,o),
(416,527,cs),
(416,665,ls),
(416,671,o),
(420,675,o),
(426,675,cs),
(444,675,l),
(444,692,l),
(384,692,l),
(384,689,l),
(379,675,l),
(322,549,l),
(263,692,l),
(201,692,l),
(201,675,l),
(214,675,ls),
(216,675,o),
(218,674,o),
(220,673,c),
(220,527,ls),
(220,521,o),
(216,517,o),
(210,517,cs),
(188,517,l),
(188,500,l)
);
}
);
width = 454;
}
);
unicode = 8482;
},
{
glyphname = degree;
lastChange = "2023-05-27 19:16:52 +0000";
layers = (
{
layerId = m01;
shapes = (
{
closed = 1;
nodes = (
(314,433,o),
(375,495,o),
(375,572,cs),
(375,648,o),
(314,709,o),
(238,709,cs),
(161,709,o),
(99,648,o),
(99,572,cs),
(99,495,o),
(161,433,o),
(238,433,cs)
);
},
{
closed = 1;
nodes = (
(190,486,o),
(152,524,o),
(152,572,cs),
(152,620,o),
(190,656,o),
(238,656,cs),
(285,656,o),
(322,620,o),
(322,572,cs),
(322,524,o),
(285,486,o),
(238,486,cs)
);
}
);
width = 474;
}
);
unicode = 176;
},
{
glyphname = bar;
lastChange = "2023-05-26 09:28:52 +0000";
layers = (
{
layerId = m01;
shapes = (
{
closed = 1;
nodes = (
(30,-200,l),
(60,-200,l),
(60,700,l),
(30,700,l)
);
}
);
width = 90;
}
);
unicode = 124;
},
{
glyphname = dagger;
lastChange = "2023-05-25 19:42:25 +0000";
layers = (
{
layerId = m01;
shapes = (
{
closed = 1;
nodes = (
(235,-143,o),
(213,-110,o),
(213,-51,cs),
(213,17,o),
(254,133,o),
(254,411,c),
(165,411,o),
(165,382,o),
(104,382,cs),
(59,382,o),
(34,400,o),
(34,432,cs),
(34,463,o),
(61,481,o),
(109,481,cs),
(147,481,o),
(165,451,o),
(254,451,c),
(254,539,o),
(215,572,o),
(215,642,cs),
(215,693,o),
(237,722,o),
(276,722,cs),
(313,722,o),
(334,695,o),
(334,647,cs),
(334,572,o),
(295,539,o),
(295,451,c),
(391,451,o),
(405,480,o),
(444,480,cs),
(490,480,o),
(515,462,o),
(515,430,cs),
(515,399,o),
(490,381,o),
(446,381,cs),
(405,381,o),
(391,411,o),
(295,411,c),
(295,131,o),
(337,9,o),
(337,-51,cs),
(337,-110,o),
(314,-143,o),
(274,-143,cs)
);
}
);
width = 550;
}
);
unicode = 8224;
},
{
glyphname = daggerdbl;
lastChange = "2023-05-27 11:17:05 +0000";
layers = (
{
layerId = m01;
shapes = (
{
closed = 1;
nodes = (
(235,-143,o),
(263,-110,o),
(263,-51,cs),
(263,17,o),
(254,133,o),
(254,411,c),
(165,411,o),
(165,382,o),
(104,382,cs),
(59,382,o),
(34,400,o),
(34,432,cs),
(34,463,o),
(61,481,o),
(109,481,cs),
(147,481,o),
(165,451,o),
(254,451,c),
(254,539,o),
(215,572,o),
(215,642,cs),
(215,693,o),
(237,722,o),
(276,722,cs),
(313,722,o),
(334,695,o),
(334,647,cs),
(334,572,o),
(295,539,o),
(295,451,c),
(391,451,o),
(405,480,o),
(444,480,cs),
(490,480,o),
(515,462,o),
(515,430,cs),
(515,399,o),
(490,381,o),
(446,381,cs),
(405,381,o),
(391,411,o),
(295,411,c),
(295,131,o),
(287,9,o),
(287,-51,cs),
(287,-110,o),
(314,-143,o),
(274,-143,cs)
);
},
{
closed = 1;
nodes = (
(314,722,o),
(287,689,o),
(287,630,cs),
(287,570,o),
(295,448,o),
(295,168,c),
(391,168,o),
(405,198,o),
(446,198,cs),
(490,198,o),
(515,180,o),
(515,149,cs),
(515,117,o),
(490,99,o),
(444,99,cs),
(405,99,o),
(391,128,o),
(295,128,c),
(295,40,o),
(334,7,o),
(334,-68,cs),
(334,-116,o),
(313,-143,o),
(276,-143,cs),
(237,-143,o),
(215,-114,o),
(215,-63,cs),
(215,7,o),
(254,40,o),
(254,128,c),
(165,128,o),
(147,98,o),
(109,98,cs),
(61,98,o),
(34,116,o),
(34,147,cs),
(34,179,o),
(59,197,o),
(104,197,cs),
(165,197,o),
(165,168,o),
(254,168,c),
(254,446,o),
(263,562,o),
(263,630,cs),
(263,689,o),
(235,722,o),
(274,722,cs)
);
}
);
width = 550;
}
);
unicode = 8225;
},
{
glyphname = cent;
lastChange = "2023-05-26 21:42:45 +0000";
layers = (
{
layerId = m01;
shapes = (
{
closed = 1;
nodes = (
(403,-8,o),
(473,52,o),
(474,156,c),
(424,156,l),
(424,68,o),
(372,17,o),
(279,17,cs),
(197,17,o),
(152,102,o),
(152,252,cs),
(152,399,o),
(197,483,o),
(279,483,c),
(279,508,l),
(130,508,o),
(47,415,o),
(47,252,cs),
(47,86,o),
(130,-8,o),
(279,-8,cs)
);
},
{
closed = 1;
nodes = (
(451,329,l),
(451,462,l),
(409,490,o),
(347,508,o),
(279,508,c),
(279,483,l),
(369,483,o),
(419,434,o),
(419,351,cs),
(419,329,l)
);
},
{
closed = 1;
nodes = (
(260,-126,l),
(300,-126,l),
(300,640,l),
(260,640,l)
);
}
);
width = 506;
}
);
unicode = 162;
},
{
glyphname = dollar;
lastChange = "2023-05-27 19:13:23 +0000";
layers = (
{
layerId = m01;
shapes = (
{
ref = S;
},
{
closed = 1;
nodes = (
(250,-126,l),
(282,-126,l),
(282,800,l),
(250,800,l)
);
}
);
width = 550;
}
);
unicode = 36;
},
{
glyphname = euro;
lastChange = "2023-05-27 19:14:14 +0000";
layers = (
{
layerId = m01;
shapes = (
{
closed = 1;
nodes = (
(20,391,l),
(422,391,l),
(422,441,l),
(20,441,l)
);
},
{
closed = 1;
nodes = (
(20,260,l),
(422,260,l),
(422,310,l),
(20,310,l)
);
},
{
closed = 1;
nodes = (
(354,14,l),
(267,14,o),
(212,145,o),
(212,354,cs),
(212,559,o),
(267,688,o),
(354,688,c),
(354,708,l),
(205,708,o),
(112,571,o),
(112,354,cs),
(112,133,o),
(205,-6,o),
(354,-6,c)
);
},
{
closed = 1;
nodes = (
(412,-6,o),
(487,23,o),
(550,70,c),
(550,220,l),
(514,220,l),
(514,195,ls),
(514,84,o),
(452,14,o),
(354,14,c),
(354,-6,l)
);
},
{
closed = 1;
nodes = (
(535,492,l),
(535,642,l),
(481,683,o),
(411,708,o),
(354,708,c),
(354,688,l),
(443,688,o),
(499,622,o),
(499,517,cs),
(499,492,l)
);
}
);
width = 570;
}
);
unicode = 8364;
},
{
glyphname = sterling;
lastChange = "2023-05-27 19:10:29 +0000";
layers = (
{
layerId = m01;
shapes = (
{
closed = 1;
nodes = (
(57,347,l),
(178,347,l),
(205,250,o),
(222,176,o),
(222,155,cs),
(222,123,o),
(217,91,o),
(208,72,c),
(163,90,o),
(118,101,o),
(90,101,cs),
(53,101,o),
(30,80,o),
(30,46,cs),
(30,13,o),
(57,-8,o),
(99,-8,cs),
(144,-8,o),
(190,11,o),
(217,41,c),
(249,12,o),
(314,-7,o),
(385,-7,cs),
(504,-7,o),
(578,82,o),
(578,224,c),
(542,224,l),
(535,93,o),
(445,45,o),
(243,63,c),
(277,111,o),
(299,198,o),
(299,291,cs),
(299,297,o),
(297,318,o),
(293,347,c),
(455,347,l),
(455,383,l),
(284,383,l),
(272,435,o),
(264,506,o),
(264,566,cs),
(264,638,o),
(304,684,o),
(367,684,c),
(367,709,l),
(241,709,o),
(162,607,o),
(162,445,cs),
(162,427,o),
(164,403,o),
(168,383,c),
(57,383,l)
);
},
{
closed = 1;
nodes = (
(494,536,l),
(494,686,l),
(466,701,o),
(424,709,o),
(367,709,c),
(367,684,l),
(425,684,o),
(453,629,o),
(453,561,cs),
(453,555,o),
(452,545,o),
(452,536,c)
);
}
);
width = 600;
}
);
unicode = 163;
},
{
glyphname = yen;
lastChange = "2023-05-27 19:12:45 +0000";
layers = (
{
layerId = m01;
shapes = (
{
closed = 1;
nodes = (
(338,377,l),
(184,649,l),
(178,666,o),
(192,675,o),
(223,675,cs),
(278,675,l),
(278,701,l),
(173,701,ls),
(-52,701,o),
(22,701,o),
(2,701,c),
(2,675,l),
(67,675,ls),
(81,675,o),
(90,664,o),
(98,649,cs),
(316,260,l)
);
},
{
closed = 1;
nodes = (
(333,0,ls),
(353,0,o),
(428,0,o),
(448,0,c),
(448,26,l),
(383,26,ls),
(362,26,o),
(348,40,o),
(348,63,cs),
(348,366,l),
(268,366,l),
(268,63,ls),
(268,40,o),
(254,26,o),
(233,26,cs),
(178,26,l),
(178,0,l)
);
},
{
closed = 1;
nodes = (
(302,289,l),
(524,654,ls),
(532,668,o),
(539,675,o),
(554,675,cs),
(609,675,l),
(609,701,l),
(494,701,ls),
(474,701,o),
(409,701,o),
(389,701,c),
(389,675,l),
(434,675,ls),
(464,675,o),
(478,667,o),
(474,654,c),
(272,289,l)
);
},
{
closed = 1;
nodes = (
(105,326,l),
(515,326,l),
(515,366,l),
(105,366,l)
);
},
{
closed = 1;
nodes = (
(105,195,l),
(515,195,l),
(515,235,l),
(105,235,l)
);
}
);
width = 581;
}
);
unicode = 165;
},
{
glyphname = plus;
lastChange = "2023-05-26 21:52:32 +0000";
layers = (
{
layerId = m01;
shapes = (
{
closed = 1;
nodes = (
(85,256,l),
(515,256,l),
(515,316,l),
(85,316,l)
);
},
{
closed = 1;
nodes = (
(270,501,l),
(270,71,l),
(330,71,l),
(330,501,l)
);
}
);
width = 600;
}
);
unicode = 43;
},
{
glyphname = minus;
lastChange = "2023-05-27 08:07:13 +0000";
layers = (
{
layerId = m01;
shapes = (
{
closed = 1;
nodes = (
(85,256,l),
(515,256,l),
(515,316,l),
(85,316,l)
);
}
);
width = 600;
}
);
unicode = 8722;
},
{
glyphname = multiply;
lastChange = "2023-05-26 21:52:49 +0000";
layers = (
{
layerId = m01;
shapes = (
{
closed = 1;
nodes = (
(127,417,l),
(431,113,l),
(473,155,l),
(169,459,l)
);
},
{
closed = 1;
nodes = (
(431,459,l),
(127,155,l),
(169,113,l),
(473,417,l)
);
}
);
width = 600;
}
);
unicode = 215;
},
{
glyphname = divide;
lastChange = "2023-05-26 21:53:35 +0000";
layers = (
{
layerId = m01;
shapes = (
{
closed = 1;
nodes = (
(85,256,l),
(515,256,l),
(515,316,l),
(85,316,l)
);
},
{
closed = 1;
nodes = (
(330,44,o),
(356,70,o),
(356,104,cs),
(356,137,o),
(330,163,o),
(297,163,cs),
(263,163,o),
(237,137,o),
(237,104,cs),
(237,70,o),
(263,44,o),
(297,44,cs)
);
},
{
closed = 1;
nodes = (
(331,404,o),
(357,430,o),
(357,464,cs),
(357,497,o),
(331,523,o),
(298,523,cs),
(264,523,o),
(238,497,o),
(238,464,cs),
(238,430,o),
(264,404,o),
(298,404,cs)
);
}
);
width = 600;
}
);
unicode = 247;
},
{
glyphname = equal;
lastChange = "2023-05-26 21:54:19 +0000";
layers = (
{
layerId = m01;
shapes = (
{
closed = 1;
nodes = (
(85,332,l),
(515,332,l),
(515,392,l),
(85,392,l)
);
},
{
closed = 1;
nodes = (
(85,182,l),
(515,182,l),
(515,242,l),
(85,242,l)
);
}
);
width = 600;
}
);
unicode = 61;
},
{
glyphname = notequal;
lastChange = "2023-05-26 21:55:37 +0000";
layers = (
{
layerId = m01;
shapes = (
{
closed = 1;
nodes = (
(153,0,l),
(523,574,l),
(461,574,l),
(91,0,l)
);
},
{
closed = 1;
nodes = (
(515,162,l),
(515,222,l),
(85,222,l),
(85,162,l)
);
},
{
closed = 1;
nodes = (
(515,352,l),
(515,412,l),
(85,412,l),
(85,352,l)
);
}
);
width = 600;
}
);
unicode = 8800;
},
{
glyphname = greater;
lastChange = "2023-05-27 08:04:58 +0000";
layers = (
{
layerId = m01;
shapes = (
{
closed = 1;
nodes = (
(85,432,l),
(515,257,l),
(515,317,l),
(85,492,l)
);
},
{
closed = 1;
nodes = (
(85,82,l),
(515,257,l),
(515,317,l),
(85,142,l)
);
}
);
width = 600;
}
);
unicode = 62;
},
{
glyphname = approxequal;
lastChange = "2023-05-27 10:28:29 +0000";
layers = (
{
layerId = m01;
shapes = (
{
closed = 1;
nodes = (
(516,336,o),
(464,274,o),
(386,274,cs),
(286,274,o),
(280,351,o),
(200,351,cs),
(169,351,o),
(145,329,o),
(145,301,c),
(85,301,l),
(85,362,o),
(143,411,o),
(215,411,cs),
(315,411,o),
(336,324,o),
(386,324,cs),
(425,324,o),
(446,359,o),
(446,404,c),
(516,414,l)
);
},
{
closed = 1;
nodes = (
(516,163,o),
(454,114,o),
(376,114,cs),
(276,114,o),
(255,201,o),
(205,201,cs),
(166,201,o),
(145,166,o),
(145,121,c),
(85,121,l),
(85,199,o),
(133,251,o),
(205,251,cs),
(305,251,o),
(311,174,o),
(391,174,cs),
(422,174,o),
(446,196,o),
(446,224,c),
(516,224,l)
);
}
);
width = 600;
}
);
unicode = 8776;
},
{
glyphname = asciitilde;
lastChange = "2023-05-27 08:01:54 +0000";
layers = (
{
layerId = m01;
shapes = (
{
closed = 1;
nodes = (
(516,266,o),
(454,204,o),
(376,204,cs),
(276,204,o),
(265,291,o),
(215,291,cs),
(176,291,o),
(145,256,o),
(145,211,c),
(85,211,l),
(85,289,o),
(143,351,o),
(215,351,cs),
(315,351,o),
(326,264,o),
(376,264,cs),
(415,264,o),
(446,299,o),
(446,344,c),
(516,344,l)
);
}
);
width = 600;
}
);
unicode = 126;
},
{
glyphname = logicalnot;
lastChange = "2023-05-27 10:29:43 +0000";
layers = (
{
layerId = m01;
shapes = (
{
closed = 1;
nodes = (
(85,246,l),
(365,246,l),
(365,106,l),
(415,106,l),
(415,326,l),
(85,326,l)
);
}
);
width = 500;
}
);
unicode = 172;
},
{
glyphname = asciicircum;
lastChange = "2023-05-27 10:39:37 +0000";
layers = (
{
layerId = m01;
shapes = (
{
closed = 1;
nodes = (
(205,520,l),
(319,700,l),
(271,700,l),
(157,520,l)
);
},
{
closed = 1;
nodes = (
(443,520,l),
(329,700,l),
(281,700,l),
(395,520,l)
);
}
);
width = 600;
}
);
unicode = 94;
},
{
glyphname = infinity;
lastChange = "2023-05-27 11:05:04 +0000";
layers = (
{
layerId = m01;
shapes = (
{
closed = 1;
nodes = (
(69,430,l),
(69,480,o),
(101,516,o),
(146,516,cs),
(257,516,o),
(273,298,o),
(419,298,cs),
(495,298,o),
(549,351,o),
(549,427,c),
(531,427,l),
(531,374,o),
(501,337,o),
(459,338,cs),
(369,339,o),
(322,558,o),
(186,556,cs),
(106,555,o),
(50,503,o),
(50,430,c)
);
},
{
closed = 1;
nodes = (
(50,359,o),
(96,308,o),
(161,308,cs),
(218,308,o),
(281,356,o),
(313,425,cs),
(333,472,o),
(300,461,o),
(275,425,cs),
(242,373,o),
(194,337,o),
(161,337,cs),
(107,337,o),
(69,376,o),
(69,430,c),
(50,430,l)
);
},
{
closed = 1;
nodes = (
(549,498,o),
(503,549,o),
(438,549,cs),
(381,549,o),
(318,501,o),
(286,432,cs),
(266,385,o),
(299,396,o),
(324,432,cs),
(357,484,o),
(405,520,o),
(438,520,cs),
(492,520,o),
(531,481,o),
(531,427,c),
(549,427,l)
);
},
{
closed = 1;
nodes = (
(531,425,l),
(531,375,o),
(499,339,o),
(454,339,cs),
(343,339,o),
(327,557,o),
(181,557,cs),
(105,557,o),
(51,504,o),
(51,428,c),
(69,428,l),
(69,481,o),
(99,518,o),
(141,517,cs),
(231,516,o),
(278,297,o),
(414,299,cs),
(494,300,o),
(550,352,o),
(550,425,c)
);
},
{
closed = 1;
nodes = (
(550,496,o),
(504,547,o),
(439,547,cs),
(382,547,o),
(319,499,o),
(287,430,cs),
(267,383,o),
(300,394,o),
(325,430,cs),
(358,482,o),
(406,518,o),
(439,518,cs),
(493,518,o),
(531,479,o),
(531,425,c),
(550,425,l)
);
},
{
closed = 1;
nodes = (
(51,357,o),
(97,306,o),
(162,306,cs),
(219,306,o),
(282,354,o),
(314,423,cs),
(334,470,o),
(301,459,o),
(276,423,cs),
(243,371,o),
(195,335,o),
(162,335,cs),
(108,335,o),
(69,374,o),
(69,428,c),
(51,428,l)
);
}
);
width = 600;
}
);
unicode = 8734;
},
{
glyphname = integral;
lastChange = "2023-05-27 11:04:49 +0000";
layers = (
{
layerId = m01;
shapes = (
{
closed = 1;
nodes = (
(374,705,o),
(274,630,o),
(261,330,cs),
(248,35,o),
(256,-90,o),
(146,-90,cs),
(106,-90,l),
(106,-140,l),
(137,-139,o),
(108,-140,o),
(146,-140,cs),
(226,-140,o),
(324,-60,o),
(339,235,cs),
(354,534,o),
(344,655,o),
(454,655,cs),
(494,655,l),
(494,705,l),
(454,705,l)
);
}
);
width = 600;
}
);
unicode = 8747;
},
{
glyphname = percent;
lastChange = "2023-05-27 19:32:42 +0000";
layers = (
{
layerId = m01;
shapes = (
{
closed = 1;
nodes = (
(281,0,l),
(683,700,l),
(630,700,l),
(227,0,l)
);
},
{
closed = 1;
nodes = (
(121,708,o),
(66,626,o),
(66,478,cs),
(66,326,o),
(121,242,o),
(219,242,cs),
(317,242,o),
(371,326,o),
(371,478,c),
(371,626,o),
(317,708,o),
(219,708,cs)
);
},
{
closed = 1;
nodes = (
(177,265,o),
(141,340,o),
(138,478,cs),
(138,620,o),
(176,683,o),
(219,683,cs),
(259,683,o),
(296,620,o),
(296,478,cs),
(296,340,o),
(257,265,o),
(217,265,cs)
);
},
{
closed = 1;
nodes = (
(588,458,o),
(533,376,o),
(533,228,cs),
(533,76,o),
(588,-8,o),
(686,-8,cs),
(784,-8,o),
(838,76,o),
(838,228,c),
(838,376,o),
(784,458,o),
(686,458,cs)
);
},
{
closed = 1;
nodes = (
(646,17,o),
(608,90,o),
(605,228,cs),
(605,370,o),
(643,433,o),
(686,433,cs),
(726,433,o),
(763,370,o),
(763,228,cs),
(763,90,o),
(726,17,o),
(686,17,cs)
);
}
);
width = 937;
}
);
unicode = 37;
},
{
glyphname = perthousand;
lastChange = "2023-05-27 11:05:52 +0000";
layers = (
{
layerId = m01;
shapes = (
{
closed = 1;
nodes = (
(300,0,l),
(652,700,l),
(599,700,l),
(246,0,l)
);
},
{
closed = 1;
nodes = (
(588,450,o),
(533,370,o),
(533,225,cs),
(533,75,o),
(588,-7,o),
(686,-7,cs),
(784,-7,o),
(838,75,o),
(838,225,c),
(838,370,o),
(784,450,o),
(686,450,cs)
);
},
{
closed = 1;
nodes = (
(646,18,o),
(608,89,o),
(605,225,cs),
(605,364,o),
(643,426,o),
(686,426,cs),
(726,426,o),
(763,364,o),
(763,225,cs),
(763,89,o),
(726,18,o),
(686,18,cs)
);
},
{
closed = 1;
nodes = (
(941,450,o),
(886,370,o),
(886,225,cs),
(886,75,o),
(941,-7,o),
(1039,-7,cs),
(1137,-7,o),
(1191,75,o),
(1191,225,c),
(1191,370,o),
(1137,450,o),
(1039,450,cs)
);
},
{
closed = 1;
nodes = (
(999,18,o),
(961,89,o),
(958,225,cs),
(958,364,o),
(996,426,o),
(1039,426,cs),
(1079,426,o),
(1116,364,o),
(1116,225,cs),
(1116,89,o),
(1079,18,o),
(1039,18,cs)
);
},
{
closed = 1;
nodes = (
(110,706,o),
(55,626,o),
(55,481,cs),
(55,331,o),
(110,249,o),
(208,249,cs),
(306,249,o),
(360,331,o),
(360,481,c),
(360,626,o),
(306,706,o),
(208,706,cs)
);
},
{
closed = 1;
nodes = (
(168,274,o),
(130,345,o),
(127,481,cs),
(127,620,o),
(165,682,o),
(208,682,cs),
(248,682,o),
(285,620,o),
(285,481,cs),
(285,345,o),
(248,274,o),
(208,274,cs)
);
}
);
width = 1246;
}
);
unicode = 8240;
},
{
glyphname = upArrow;
lastChange = "2023-05-27 16:35:00 +0000";
layers = (
{
layerId = m01;
shapes = (
{
closed = 1;
nodes = (
(386,214,o),
(387,353,o),
(388,500,cs),
(388,534,o),
(391,555,o),
(391,589,cs),
(391,633,o),
(361,697,o),
(330,706,c),
(308,706,l),
(277,697,o),
(246,633,o),
(246,589,cs),
(246,555,o),
(249,533,o),
(249,500,cs),
(249,352,o),
(249,214,o),
(249,67,cs),
(249,49,o),
(232,30,o),
(214,30,cs),
(94,30,l),
(94,0,l),
(534,0,l),
(534,30,l),
(419,30,ls),
(402,30,o),
(384,49,o),
(384,67,cs)
);
}
);
width = 600;
}
);
unicode = 8593;
},
{
glyphname = downArrow;
lastChange = "2023-05-27 16:35:05 +0000";
layers = (
{
layerId = m01;
shapes = (
{
closed = 1;
nodes = (
(424,150,ls),
(424,71,o),
(367,-8,o),
(304,-8,cs),
(247,-8,o),
(184,71,o),
(184,150,cs),
(184,620,ls),
(184,645,o),
(167,670,o),
(149,670,cs),
(29,670,l),
(29,700,l),
(244,700,l),
(241,150,l),
(241,94,o),
(277,52,o),
(304,52,cs),
(337,52,o),
(367,94,o),
(367,150,c),
(364,700,l),
(564,700,l),
(564,670,l),
(459,670,ls),
(442,670,o),
(424,652,o),
(424,633,cs)
);
}
);
width = 649;
}
);
unicode = 8595;
},
{
glyphname = dieresiscomb;
lastChange = "2023-05-25 20:26:54 +0000";
layers = (
{
layerId = m01;
shapes = (
{
closed = 1;
nodes = (
(463,608,o),
(492,637,o),
(492,673,cs),
(492,709,o),
(463,738,o),
(427,738,cs),
(391,738,o),
(362,709,o),
(362,673,cs),
(362,637,o),
(391,608,o),
(427,608,cs)
);
},
{
closed = 1;
nodes = (
(233,608,o),
(262,637,o),
(262,673,cs),
(262,709,o),
(233,738,o),
(197,738,cs),
(161,738,o),
(132,709,o),
(132,673,cs),
(132,637,o),
(161,608,o),
(197,608,cs)
);
}
);
width = 624;
}
);
unicode = 776;
},
{
glyphname = dotaccentcomb;
lastChange = "2023-05-25 20:17:39 +0000";
layers = (
{
layerId = m01;
shapes = (
{
closed = 1;
nodes = (
(348,608,o),
(377,637,o),
(377,673,cs),
(377,709,o),
(348,738,o),
(312,738,cs),
(276,738,o),
(247,709,o),
(247,673,cs),
(247,637,o),
(276,608,o),
(312,608,cs)
);
}
);
width = 624;
}
);
unicode = 775;
},
{
glyphname = acutecomb;
lastChange = "2023-05-27 19:49:30 +0000";
layers = (
{
layerId = m01;
shapes = (
{
closed = 1;
nodes = (
(66,650,l),
(101,594,l),
(316,703,l),
(272,778,l)
);
}
);
width = 378;
}
);
unicode = 769;
},
{
glyphname = circumflexcomb;
lastChange = "2023-05-25 20:23:34 +0000";
layers = (
{
layerId = m01;
shapes = (
{
closed = 1;
nodes = (
(100,622,l),
(147,574,l),
(279,681,l),
(411,574,l),
(458,622,l),
(279,783,l)
);
}
);
width = 558;
}
);
unicode = 770;
},
{
glyphname = ringcomb;
lastChange = "2023-05-26 16:15:12 +0000";
layers = (
{
layerId = m01;
shapes = (
{
closed = 1;
nodes = (
(235,586,o),
(273,625,o),
(273,673,cs),
(273,721,o),
(235,759,o),
(187,759,cs),
(139,759,o),
(100,721,o),
(100,673,cs),
(100,625,o),
(139,586,o),
(187,586,cs)
);
},
{
closed = 1;
nodes = (
(157,624,o),
(138,643,o),
(138,673,cs),
(138,703,o),
(157,721,o),
(187,721,cs),
(217,721,o),
(235,703,o),
(235,673,cs),
(235,643,o),
(217,624,o),
(187,624,cs)
);
}
);
width = 373;
}
);
unicode = 778;
},
{
glyphname = tildecomb;
lastChange = "2023-05-25 20:25:10 +0000";
layers = (
{
layerId = m01;
shapes = (
{
closed = 1;
nodes = (
(123,637,o),
(154,657,o),
(189,657,cs),
(233,657,o),
(280,613,o),
(333,613,cs),
(384,613,o),
(426,657,o),
(461,730,c),
(433,744,l),
(422,721,o),
(388,698,o),
(351,698,cs),
(304,698,o),
(260,741,o),
(209,741,cs),
(156,741,o),
(111,694,o),
(80,624,c),
(108,610,l)
);
}
);
width = 541;
}
);
unicode = 771;
},
{
glyphname = cedillacomb;
lastChange = "2023-05-25 20:26:32 +0000";
layers = (
{
layerId = m01;
shapes = (
{
closed = 1;
nodes = (
(133,-123,l),
(133,-81,o),
(156,-54,o),
(192,-54,cs),
(221,-54,o),
(239,-81,o),
(239,-125,cs),
(239,-165,o),
(214,-190,o),
(174,-190,cs),
(160,-190,o),
(138,-181,o),
(115,-167,c),
(100,-189,l),
(133,-211,o),
(172,-225,o),
(200,-225,cs),
(273,-225,o),
(319,-188,o),
(319,-129,cs),
(319,-65,o),
(275,-25,o),
(205,-25,cs),
(174,-25,o),
(135,-34,o),
(104,-49,c),
(102,-123,l)
);
}
);
width = 419;
}
);
unicode = 807;
},
